<svg xmlns="http://www.w3.org/2000/svg" viewBox="0 0 750 500"><defs><style>.cls-1{fill:#ebebeb;}.cls-10,.cls-12,.cls-13,.cls-2{fill:#fff;}.cls-3{fill:none;}.cls-13,.cls-14,.cls-3{stroke:#ebebeb;}.cls-10,.cls-12,.cls-13,.cls-14,.cls-17,.cls-3{stroke-miterlimit:10;}.cls-4{fill:#a6a6a6;}.cls-14,.cls-5{fill:#ffc727;}.cls-17,.cls-6{fill:#263238;}.cls-7{fill:#dbdbdb;}.cls-8{fill:#c7c7c7;}.cls-9{fill:#455a64;}.cls-10{stroke:#c7c7c7;}.cls-11{fill:#37474f;}.cls-12{stroke:#dbdbdb;stroke-width:0.5px;}.cls-15,.cls-18{opacity:0.2;}.cls-16{fill:#ad6359;}.cls-17{stroke:#263238;stroke-width:3px;}.cls-19{fill:#f392b9;}.cls-20{opacity:0.1;}</style></defs><title>find</title><g id="Background_Complete" data-name="Background Complete"><polygon class="cls-1" points="214.59 289.46 213.24 289.46 213.24 288.56 213.69 288.56 213.69 288.1 214.59 288.1 214.59 289.46"/><path class="cls-1" d="M211.42,289.46h-1.81v-.9h1.81Zm-3.62,0H206v-.9h1.81Zm-3.62,0h-1.81v-.9h1.81Zm-3.62,0h-1.81v-.9h1.81Zm-3.62,0h-1.82v-.9h1.82Zm-3.63,0H191.5v-.9h1.81Zm-3.62,0h-1.81v-.9h1.81Zm-3.62,0h-1.81v-.9h1.81Zm-3.62,0h-1.81v-.9h1.81Zm-3.63,0H177v-.9h1.81Zm-3.62,0h-1.81v-.9h1.81Zm-3.62,0h-1.81v-.9h1.81Zm-3.62,0h-1.81v-.9H168Zm-3.62,0h-1.81v-.9h1.81Zm-3.63,0H158.9v-.9h1.81Zm-3.62,0h-1.81v-.9h1.81Zm-3.62,0h-1.81v-.9h1.81Z"/><polygon class="cls-1" points="149.85 289.46 148.49 289.46 148.49 288.1 149.39 288.1 149.39 288.56 149.85 288.56 149.85 289.46"/><path class="cls-1" d="M149.39,286.29h-.9v-1.81h.9Zm0-3.62h-.9v-1.81h.9Zm0-3.62h-.9v-1.81h.9Zm0-3.62h-.9v-1.81h.9Zm0-3.63h-.9V270h.9Zm0-3.62h-.9v-1.81h.9Zm0-3.62h-.9v-1.81h.9Zm0-3.62h-.9v-1.81h.9Zm0-3.62h-.9V255.5h.9Zm0-3.63h-.9v-1.81h.9Zm0-3.62h-.9v-1.81h.9Zm0-3.62h-.9v-1.81h.9Zm0-3.62h-.9V241h.9Zm0-3.62h-.9v-1.82h.9Zm0-3.63h-.9v-1.81h.9Zm0-3.62h-.9v-1.81h.9Zm0-3.62h-.9v-1.81h.9Z"/><polygon class="cls-1" points="149.39 224.72 148.49 224.72 148.49 223.36 149.85 223.36 149.85 224.26 149.39 224.26 149.39 224.72"/><path class="cls-1" d="M211.42,224.26h-1.81v-.9h1.81Zm-3.62,0H206v-.9h1.81Zm-3.62,0h-1.81v-.9h1.81Zm-3.62,0h-1.81v-.9h1.81Zm-3.62,0h-1.82v-.9h1.82Zm-3.63,0H191.5v-.9h1.81Zm-3.62,0h-1.81v-.9h1.81Zm-3.62,0h-1.81v-.9h1.81Zm-3.62,0h-1.81v-.9h1.81Zm-3.62,0H177v-.9h1.82Zm-3.63,0h-1.81v-.9h1.81Zm-3.62,0h-1.81v-.9h1.81Zm-3.62,0h-1.81v-.9H168Zm-3.62,0h-1.81v-.9h1.81Zm-3.63,0H158.9v-.9h1.81Zm-3.62,0h-1.81v-.9h1.81Zm-3.62,0h-1.81v-.9h1.81Z"/><polygon class="cls-1" points="214.59 224.72 213.69 224.72 213.69 224.26 213.24 224.26 213.24 223.36 214.59 223.36 214.59 224.72"/><path class="cls-1" d="M214.59,286.29h-.9v-1.81h.9Zm0-3.62h-.9v-1.81h.9Zm0-3.62h-.9v-1.81h.9Zm0-3.62h-.9v-1.81h.9Zm0-3.62h-.9V270h.9Zm0-3.63h-.9v-1.81h.9Zm0-3.62h-.9v-1.81h.9Zm0-3.62h-.9v-1.81h.9Zm0-3.62h-.9v-1.81h.9Zm0-3.63h-.9v-1.81h.9Zm0-3.62h-.9v-1.81h.9Zm0-3.62h-.9v-1.81h.9Zm0-3.62h-.9V241h.9Zm0-3.62h-.9v-1.82h.9Zm0-3.63h-.9v-1.81h.9Zm0-3.62h-.9v-1.81h.9Zm0-3.62h-.9v-1.81h.9Z"/><rect class="cls-2" x="144.88" y="284.95" width="8.12" height="8.12"/><path class="cls-1" d="M153.46,293.53h-9v-9h9Zm-8.13-.91h7.22V285.4h-7.22Z"/><rect class="cls-2" x="144.91" y="252.35" width="8.12" height="8.12"/><path class="cls-1" d="M153.46,260.93h-9v-9h9Zm-8.13-.91h7.22V252.8h-7.22Z"/><rect class="cls-2" x="144.91" y="219.75" width="8.12" height="8.12"/><path class="cls-1" d="M153.46,228.33h-9v-9h9Zm-8.13-.91h7.22V220.2h-7.22Z"/><rect class="cls-2" x="210.11" y="284.95" width="8.12" height="8.12"/><path class="cls-1" d="M218.66,293.53h-9v-9h9Zm-8.13-.91h7.22V285.4h-7.22Z"/><rect class="cls-2" x="210.11" y="252.35" width="8.12" height="8.12"/><path class="cls-1" d="M218.66,260.93h-9v-9h9Zm-8.13-.91h7.22V252.8h-7.22Z"/><rect class="cls-2" x="210.11" y="219.75" width="8.12" height="8.12"/><path class="cls-1" d="M218.66,228.33h-9v-9h9Zm-8.13-.91h7.22V220.2h-7.22Z"/><rect class="cls-2" x="177.51" y="219.75" width="8.12" height="8.12"/><path class="cls-1" d="M186.06,228.33h-9v-9h9Zm-8.13-.91h7.22V220.2h-7.22Z"/><rect class="cls-2" x="177.48" y="284.95" width="8.12" height="8.12"/><path class="cls-1" d="M186.06,293.53h-9v-9h9Zm-8.13-.91h7.22V285.4h-7.22Z"/><polygon class="cls-1" points="605.12 150.78 603.76 150.78 603.76 149.88 604.21 149.88 604.21 149.43 605.12 149.43 605.12 150.78"/><path class="cls-1" d="M602,150.79h-1.81v-.91H602Zm-3.62,0h-1.81v-.91h1.81Zm-3.62,0h-1.82v-.91h1.82Zm-3.63,0h-1.81v-.91h1.81Zm-3.62,0h-1.81v-.91h1.81Zm-3.62,0H582v-.91h1.81Zm-3.62,0h-1.81v-.91h1.81Zm-3.62,0h-1.82v-.91h1.82Zm-3.63,0h-1.81v-.91H573Zm-3.62,0h-1.81v-.91h1.81Zm-3.62,0h-1.81v-.91h1.81Zm-3.62,0H560.3v-.91h1.81Zm-3.63,0h-1.81v-.91h1.81Zm-3.62,0h-1.81v-.91h1.81Zm-3.62,0h-1.81v-.91h1.81Zm-3.62,0h-1.81v-.91h1.81Zm-3.62,0h-1.81v-.91H544Z"/><polygon class="cls-1" points="540.37 150.78 539.01 150.78 539.01 149.43 539.92 149.43 539.92 149.88 540.37 149.88 540.37 150.78"/><path class="cls-1" d="M539.92,147.61H539V145.8h.91Zm0-3.62H539v-1.81h.91Zm0-3.62H539v-1.81h.91Zm0-3.62H539v-1.81h.91Zm0-3.62H539v-1.81h.91Zm0-3.63H539v-1.81h.91Zm0-3.62H539v-1.81h.91Zm0-3.62H539v-1.81h.91Zm0-3.62H539v-1.81h.91Zm0-3.62H539V113.2h.91Zm0-3.63H539v-1.81h.91Zm0-3.62H539V106h.91Zm0-3.62H539v-1.81h.91Zm0-3.62H539V98.72h.91Zm0-3.63H539V95.09h.91Zm0-3.62H539V91.47h.91Zm0-3.62H539V87.85h.91Z"/><polygon class="cls-1" points="539.92 86.04 539.01 86.04 539.01 84.68 540.37 84.68 540.37 85.58 539.92 85.58 539.92 86.04"/><path class="cls-1" d="M602,85.59h-1.81v-.91H602Zm-3.62,0h-1.81v-.91h1.81Zm-3.62,0h-1.82v-.91h1.82Zm-3.63,0h-1.81v-.91h1.81Zm-3.62,0h-1.81v-.91h1.81Zm-3.62,0H582v-.91h1.81Zm-3.62,0h-1.81v-.91h1.81Zm-3.62,0h-1.82v-.91h1.82Zm-3.63,0h-1.81v-.91H573Zm-3.62,0h-1.81v-.91h1.81Zm-3.62,0h-1.81v-.91h1.81Zm-3.62,0H560.3v-.91h1.81Zm-3.63,0h-1.81v-.91h1.81Zm-3.62,0h-1.81v-.91h1.81Zm-3.62,0h-1.81v-.91h1.81Zm-3.62,0h-1.81v-.91h1.81Zm-3.62,0h-1.81v-.91H544Z"/><polygon class="cls-1" points="605.12 86.04 604.21 86.04 604.21 85.58 603.76 85.58 603.76 84.68 605.12 84.68 605.12 86.04"/><path class="cls-1" d="M605.12,147.62h-.91V145.8h.91Zm0-3.63h-.91v-1.81h.91Zm0-3.62h-.91v-1.81h.91Zm0-3.62h-.91v-1.81h.91Zm0-3.62h-.91v-1.81h.91Zm0-3.63h-.91v-1.81h.91Zm0-3.62h-.91v-1.81h.91Zm0-3.62h-.91v-1.81h.91Zm0-3.62h-.91v-1.81h.91Zm0-3.62h-.91V113.2h.91Zm0-3.63h-.91v-1.81h.91Zm0-3.62h-.91V106h.91Zm0-3.62h-.91v-1.81h.91Zm0-3.62h-.91V98.72h.91Zm0-3.62h-.91V95.09h.91Zm0-3.63h-.91V91.47h.91Zm0-3.62h-.91V87.85h.91Z"/><rect class="cls-2" x="535.41" y="146.27" width="8.12" height="8.12"/><path class="cls-1" d="M544,154.85h-9v-9h9Zm-8.12-.91h7.22v-7.22h-7.22Z"/><rect class="cls-2" x="535.44" y="113.67" width="8.12" height="8.12"/><path class="cls-1" d="M544,122.25h-9v-9h9Zm-8.12-.91h7.22v-7.22h-7.22Z"/><rect class="cls-2" x="535.44" y="81.07" width="8.12" height="8.12"/><path class="cls-1" d="M544,89.65h-9v-9h9Zm-8.12-.91h7.22V81.52h-7.22Z"/><rect class="cls-2" x="600.64" y="146.27" width="8.12" height="8.12"/><path class="cls-1" d="M609.18,154.85h-9v-9h9Zm-8.12-.91h7.22v-7.22h-7.22Z"/><rect class="cls-2" x="600.64" y="113.67" width="8.12" height="8.12"/><path class="cls-1" d="M609.18,122.25h-9v-9h9Zm-8.12-.91h7.22v-7.22h-7.22Z"/><rect class="cls-2" x="600.64" y="81.07" width="8.12" height="8.12"/><path class="cls-1" d="M609.18,89.65h-9v-9h9Zm-8.12-.91h7.22V81.52h-7.22Z"/><rect class="cls-2" x="568.04" y="81.07" width="8.12" height="8.12"/><path class="cls-1" d="M576.58,89.65h-9v-9h9Zm-8.12-.91h7.22V81.52h-7.22Z"/><rect class="cls-2" x="568.01" y="146.27" width="8.12" height="8.12"/><path class="cls-1" d="M576.58,154.85h-9v-9h9Zm-8.12-.91h7.22v-7.22h-7.22Z"/><rect class="cls-3" x="48.11" y="32.21" width="142.04" height="96.82"/><path class="cls-4" d="M58.74,38a2.85,2.85,0,1,1-2.85-2.85A2.84,2.84,0,0,1,58.74,38Z"/><path class="cls-1" d="M70.38,38a2.85,2.85,0,1,1-2.85-2.85A2.85,2.85,0,0,1,70.38,38Z"/><path class="cls-5" d="M82,38a2.85,2.85,0,1,1-2.85-2.85A2.85,2.85,0,0,1,82,38Z"/><line class="cls-3" x1="48.11" y1="43.53" x2="190.15" y2="43.53"/><path class="cls-1" d="M154.41,199.22a2.44,2.44,0,0,1,2.55,0c.21.13.43.25.65.37l.68.34a2.41,2.41,0,0,1,1.41,2.1l.1,3.13,10.2-.31-.1-3.13a2.41,2.41,0,0,1,1.28-2.2,13.18,13.18,0,0,0,1.29-.8,2.43,2.43,0,0,1,2.53-.16l2.76,1.48,4.82-9-2.75-1.47a2.42,2.42,0,0,1-1.27-2.2c0-.51,0-1-.05-1.52a2.42,2.42,0,0,1,1.12-2.28l2.66-1.65-5.37-8.67-2.68,1.66a2.42,2.42,0,0,1-2.53,0c-.21-.13-.43-.25-.65-.37l-.67-.34a2.41,2.41,0,0,1-1.42-2.11l-.1-3.13-10.19.31.1,3.12a2.43,2.43,0,0,1-1.28,2.2c-.45.25-.88.52-1.3.81a2.43,2.43,0,0,1-2.53.16l-2.75-1.48-4.82,9,2.75,1.47a2.43,2.43,0,0,1,1.26,2.2c0,.51,0,1,0,1.53a2.42,2.42,0,0,1-1.13,2.28l-2.65,1.64,5.38,8.67Zm2.56-16.1a8.35,8.35,0,1,1,3.42,11.31A8.37,8.37,0,0,1,157,183.12Z"/><path class="cls-1" d="M180.47,160.21a1.74,1.74,0,0,1,1.58-.83l.53,0,.53,0a1.69,1.69,0,0,1,1.57.83l1.1,1.9,6.18-3.57-1.09-1.9a1.7,1.7,0,0,1,.06-1.78,10.54,10.54,0,0,0,.54-.92A1.69,1.69,0,0,1,193,153h2.19v-7.15H193a1.67,1.67,0,0,1-1.5-.94c-.17-.31-.34-.62-.54-.92a1.7,1.7,0,0,1-.06-1.78l1.09-1.9-6.18-3.57-1.11,1.91a1.71,1.71,0,0,1-1.57.83l-.52,0-.53,0a1.7,1.7,0,0,1-1.57-.84l-1.1-1.9-6.19,3.57,1.1,1.9a1.7,1.7,0,0,1-.06,1.78,8.51,8.51,0,0,0-.54.92,1.7,1.7,0,0,1-1.51.94H170V153h2.19a1.7,1.7,0,0,1,1.51.94,7.64,7.64,0,0,0,.54.92,1.72,1.72,0,0,1,.06,1.79l-1.1,1.89,6.19,3.57Zm-3.75-10.78a5.86,5.86,0,1,1,5.86,5.85A5.87,5.87,0,0,1,176.72,149.43Z"/><path class="cls-1" d="M587.55,350.24a1.68,1.68,0,0,1-.83-1.58c0-.17,0-.35,0-.52s0-.36,0-.53a1.69,1.69,0,0,1,.83-1.58l1.9-1.09-3.58-6.19-1.9,1.09a1.68,1.68,0,0,1-1.78-.06,9.18,9.18,0,0,0-.92-.53,1.7,1.7,0,0,1-.94-1.51v-2.19h-7.14v2.19a1.7,1.7,0,0,1-.94,1.51,9.18,9.18,0,0,0-.92.53,1.68,1.68,0,0,1-1.78.06l-1.9-1.09-3.57,6.19L566,346a1.69,1.69,0,0,1,.83,1.57c0,.17,0,.35,0,.53s0,.35,0,.52a1.71,1.71,0,0,1-.83,1.58l-1.9,1.09,3.57,6.19,1.89-1.09a1.7,1.7,0,0,1,1.78.06,10.63,10.63,0,0,0,.93.53,1.7,1.7,0,0,1,.94,1.51v2.19h7.14v-2.19a1.7,1.7,0,0,1,.94-1.51,10.63,10.63,0,0,0,.93-.53,1.7,1.7,0,0,1,1.78-.06l1.89,1.09,3.58-6.19ZM576.76,354a5.85,5.85,0,1,1,5.85-5.85A5.85,5.85,0,0,1,576.76,354Z"/><path class="cls-1" d="M59.83,265a4.23,4.23,0,0,1,4.43,0c.37.23.75.44,1.14.65s.79.41,1.18.6A4.21,4.21,0,0,1,69.05,270l.17,5.46L87,274.89l-.17-5.5a4.21,4.21,0,0,1,2.24-3.8,21.84,21.84,0,0,0,2.21-1.36,4.28,4.28,0,0,1,4.45-.31l4.8,2.58,8.41-15.68-4.8-2.58a4.26,4.26,0,0,1-2.2-3.88c0-.86,0-1.73-.09-2.59a4.2,4.2,0,0,1,1.92-4l4.67-2.9-9.37-15.11-4.66,2.89a4.17,4.17,0,0,1-4.36,0q-.58-.36-1.2-.69l-1.23-.62a4.16,4.16,0,0,1-2.42-3.64L85,212.26l-17.78.56.17,5.44a4.15,4.15,0,0,1-2.15,3.79,26,26,0,0,0-2.41,1.49,4.14,4.14,0,0,1-4.34.24l-4.8-2.57-8.41,15.68,4.8,2.57a4.25,4.25,0,0,1,2.2,3.89,24.91,24.91,0,0,0,.09,2.59,4.23,4.23,0,0,1-1.94,4l-4.65,2.88,9.37,15.12Zm3.66-26.34a14.57,14.57,0,1,1,5.14,17A14.58,14.58,0,0,1,63.49,238.7Z"/><path class="cls-1" d="M112.4,209a3,3,0,0,1,2.75-1.45c.3,0,.61,0,.92,0s.62,0,.92,0a3,3,0,0,1,2.74,1.45l1.91,3.31,10.8-6.22-1.91-3.32a2.94,2.94,0,0,1,.11-3.1c.33-.52.64-1.06.93-1.61a2.94,2.94,0,0,1,2.63-1.64H138V183.91H134.2a2.94,2.94,0,0,1-2.63-1.64c-.29-.55-.6-1.09-.93-1.6a3,3,0,0,1-.11-3.11l1.91-3.31L121.64,168l-1.92,3.33a2.94,2.94,0,0,1-2.74,1.44c-.3,0-.61,0-.91,0s-.62,0-.92,0a3,3,0,0,1-2.75-1.45L110.49,168,99.7,174.25l1.91,3.3a3,3,0,0,1-.11,3.11,17.22,17.22,0,0,0-.93,1.61,3,3,0,0,1-2.63,1.64H94.12v12.46h3.82a3,3,0,0,1,2.63,1.64,16.18,16.18,0,0,0,.93,1.62,3,3,0,0,1,.11,3.1L99.7,206l10.79,6.22Zm-6.54-18.8a10.21,10.21,0,1,1,10.21,10.2A10.21,10.21,0,0,1,105.86,190.15Z"/><path class="cls-1" d="M704.68,173.14l-6.23-10.79-3.3,1.9a3,3,0,0,1-3.11-.1,15,15,0,0,0-1.61-.93,3,3,0,0,1-1.64-2.64v-3.81H676.33v3.81a3,3,0,0,1-1.64,2.64,15,15,0,0,0-1.61.93,3,3,0,0,1-3.11.1l-3.3-1.9-6.23,10.79,3.32,1.91a3,3,0,0,1,1.45,2.75c0,.3,0,.61,0,.91s0,.62,0,.92a3,3,0,0,1-1.44,2.74l-3.33,1.92,6.23,10.79,3.31-1.91a3,3,0,0,1,3.11.11,15.88,15.88,0,0,0,1.6.93,3,3,0,0,1,1.64,2.63v3.82h12.46v-3.82a3,3,0,0,1,1.64-2.63,15.88,15.88,0,0,0,1.6-.93,3,3,0,0,1,3.11-.11l3.31,1.91,6.23-10.79-3.31-1.91a3,3,0,0,1-1.45-2.74q0-.46,0-.93c0-.3,0-.61,0-.91a3,3,0,0,1,1.45-2.75Zm-11.91,5.57a10.21,10.21,0,1,1-10.21-10.21A10.21,10.21,0,0,1,692.77,178.71Z"/><g id="aiZGp2"><path class="cls-1" d="M626.5,45a80.59,80.59,0,0,0-5.45,24.93H599v-.62l.18-1.69a60.77,60.77,0,0,1,1.46-8.7,66.65,66.65,0,0,1,4.91-13.61A.49.49,0,0,1,606,45H626.5Z"/><path class="cls-1" d="M625.84,100.67h-.36q-10,0-19.93,0a.46.46,0,0,1-.5-.32A61.86,61.86,0,0,1,600,85a59.83,59.83,0,0,1-1-7.77c0-.08,0-.17-.06-.26v-.61c.11,0,.22,0,.33,0h21.37c.4,0,.38,0,.41.4.13,1.78.25,3.55.42,5.32a69.33,69.33,0,0,0,1.36,8.36,76.62,76.62,0,0,0,2.88,9.93C625.77,100.44,625.79,100.54,625.84,100.67Z"/><path class="cls-1" d="M711.17,107.09c-.07.13-.12.22-.18.31a59.14,59.14,0,0,1-5.75,7.45,56.36,56.36,0,0,1-8.42,7.77,61.65,61.65,0,0,1-9.6,5.95,60.4,60.4,0,0,1-10.15,3.94,62.25,62.25,0,0,1-8.45,1.8l-.83.14h-.49l-.47-.3.54-.38a64.82,64.82,0,0,0,16-15.52,71.52,71.52,0,0,0,6.54-10.85.47.47,0,0,1,.5-.31h20.76Z"/><path class="cls-1" d="M690.87,69.88h-28.5V45h22.25a.42.42,0,0,1,.45.3,68.92,68.92,0,0,1,4.53,14.59,70.13,70.13,0,0,1,1.1,7.9C690.75,68.45,690.81,69.15,690.87,69.88Z"/><path class="cls-1" d="M690.7,76.53c0,.59,0,1.17-.08,1.76-.13,1.39-.23,2.77-.42,4.15-.27,1.91-.56,3.82-.94,5.71a68,68,0,0,1-3.7,12.16.48.48,0,0,1-.52.37c-7.48,0-15,0-22.44,0h-.4V76.53Z"/><path class="cls-1" d="M655.94,45.13V70.07H628.11c0-.63.06-1.25.12-1.87.15-1.39.26-2.79.48-4.18.34-2.11.71-4.22,1.16-6.32a64.76,64.76,0,0,1,4-12.27.43.43,0,0,1,.47-.31h21.58Z"/><path class="cls-1" d="M656,76.86q0,11.73,0,23.45v.36h-.38q-10.94,0-21.86,0a.44.44,0,0,1-.49-.32,63.85,63.85,0,0,1-3.79-12.57c-.42-2.22-.74-4.46-1-6.69-.18-1.46-.22-2.94-.32-4.41a1.1,1.1,0,0,1,0-.16h27.5C655.91,76.5,656,76.58,656,76.86Z"/><path class="cls-1" d="M721.09,70.06H697.74A81.52,81.52,0,0,0,692.3,45h21.76a.48.48,0,0,1,.51.3A61.38,61.38,0,0,1,720,60.88a66,66,0,0,1,1.13,8.76C721.1,69.77,721.09,69.9,721.09,70.06Z"/><path class="cls-1" d="M721.11,76.34c0,.57,0,1.1-.08,1.64-.15,2.11-.4,4.2-.76,6.29a61,61,0,0,1-4.3,14c-.31.73-.66,1.44-1,2.16a.34.34,0,0,1-.35.22H693.18l-.23,0c.26-.75.52-1.47.77-2.2a76.5,76.5,0,0,0,2.89-11.38,75.25,75.25,0,0,0,1-8.47c0-.67.08-1.34.11-2,0-.18.06-.27.25-.25h23.14Z"/><path class="cls-1" d="M710.53,38.61a1,1,0,0,0,0,.1H689.76a.47.47,0,0,1-.49-.29,70,70,0,0,0-10.14-15,56.86,56.86,0,0,0-7.78-7.18c-1.39-1.07-2.84-2.07-4.26-3.11l-.24-.17.28-.2c0-.13-.07-.26-.13-.44a60.31,60.31,0,0,1,20.65,6.2A59.51,59.51,0,0,1,710.53,38.61Z"/><path class="cls-1" d="M652,134.17a2.25,2.25,0,0,1-.6.1,55.79,55.79,0,0,1-6.65-1.3,59.48,59.48,0,0,1-11.86-4.39,60.4,60.4,0,0,1-12.08-7.93,57.31,57.31,0,0,1-7.27-7.26,60.6,60.6,0,0,1-4.53-6.28l-.1-.19h19.36a.46.46,0,0,1,.48.31,73.85,73.85,0,0,0,7,11.39,71.91,71.91,0,0,0,8.19,9.07,64,64,0,0,0,7.89,6.34Z"/><path class="cls-1" d="M651.73,12.91c-.86.63-1.89,1.35-2.88,2.12a71.12,71.12,0,0,0-9.21,8.57A64.53,64.53,0,0,0,630,37.4c-.17.32-.31.64-.5.94a.41.41,0,0,1-.29.19c-.35,0-.69,0-1,0H609.55c10.35-14.63,24.27-23.42,42-26.11l-.12.24Z"/><path class="cls-1" d="M682.37,107.11A66.35,66.35,0,0,1,673,119.85,59.52,59.52,0,0,1,662.2,129V107.11Z"/><path class="cls-1" d="M655.94,107.12v21.43a62,62,0,0,1-19.35-21.43Z"/><path class="cls-1" d="M681.73,38.52H662.37V18.09a58.93,58.93,0,0,1,10.86,9.1A67.87,67.87,0,0,1,681.73,38.52Z"/><path class="cls-1" d="M655.94,18.73v20H637.36A58.8,58.8,0,0,1,655.94,18.73Z"/></g></g><g id="Shadow"><ellipse class="cls-1" cx="447.44" cy="478.98" rx="197.47" ry="19.02"/></g><g id="Floor"><polygon class="cls-6" points="4.89 381.78 97.42 381.54 189.95 381.45 375 381.29 560.05 381.45 652.58 381.54 745.11 381.78 652.58 382.03 560.05 382.12 375 382.28 189.95 382.12 97.42 382.03 4.89 381.78"/></g><g id="Device"><rect class="cls-7" x="124.51" y="54.81" width="499.07" height="333.84"/><rect class="cls-6" x="128.14" y="58.88" width="491.82" height="325.7"/><rect class="cls-8" x="59.51" y="413.69" width="629.08" height="22.91"/><polygon class="cls-7" points="59.51 413.69 124.51 388.65 623.59 388.65 688.59 413.69 59.51 413.69"/><polygon class="cls-6" points="130.32 404.81 172.26 388.65 575.84 388.65 617.78 404.81 130.32 404.81"/><rect class="cls-2" x="155.93" y="83.63" width="436.23" height="276.21"/><rect class="cls-9" x="155.57" y="83.63" width="436.6" height="10.63"/><path class="cls-8" d="M164,88.94a2.64,2.64,0,1,1-2.63-2.63A2.64,2.64,0,0,1,164,88.94Z"/><path class="cls-2" d="M174.78,88.94a2.64,2.64,0,1,1-2.64-2.63A2.64,2.64,0,0,1,174.78,88.94Z"/><path class="cls-5" d="M185.54,88.94a2.64,2.64,0,1,1-2.64-2.63A2.64,2.64,0,0,1,185.54,88.94Z"/><rect class="cls-10" x="268.17" y="190.96" width="213.66" height="29.15"/><rect class="cls-5" x="452.68" y="190.96" width="29.15" height="29.15"/><path class="cls-2" d="M476.49,213.71l-2.69,2-5-6.59L467,206.75a4.42,4.42,0,0,0,2.43-2.38l1.93,2.55Z"/><path class="cls-2" d="M471.19,198.2a7.38,7.38,0,1,0,.16,8.72A7.35,7.35,0,0,0,471.19,198.2Zm-3.16,8a4.33,4.33,0,0,1-1,.59,4.42,4.42,0,1,1,1-.59Z"/><rect class="cls-6" x="274.27" y="196.69" width="1.56" height="17.69"/><rect class="cls-8" x="268.17" y="231.48" width="49.35" height="15.64"/><rect class="cls-5" x="350.32" y="231.48" width="49.35" height="15.64"/><rect class="cls-8" x="433.09" y="231.48" width="49.35" height="15.64"/><rect class="cls-11" x="306.86" y="159.39" width="136.29" height="9.47"/></g><g id="Screens"><polygon class="cls-1" points="232.76 263.65 158.62 263.65 158.62 168.47 213.67 168.47 232.76 186.61 232.76 263.65"/><polygon class="cls-7" points="213.67 168.47 232.76 186.61 213.67 186.61 213.67 168.47"/><rect class="cls-7" x="165.85" y="184.44" width="41.22" height="2.44" transform="translate(372.92 371.33) rotate(180)"/><rect class="cls-7" x="165.85" y="190.61" width="41.22" height="2.44" transform="translate(372.92 383.67) rotate(180)"/><rect class="cls-7" x="165.85" y="196.78" width="41.22" height="2.44" transform="translate(372.92 396.01) rotate(180)"/><rect class="cls-7" x="165.85" y="202.95" width="60.4" height="2.44" transform="translate(392.1 408.35) rotate(180)"/><rect class="cls-7" x="165.85" y="209.12" width="60.4" height="2.44" transform="translate(392.1 420.68) rotate(180)"/><rect class="cls-7" x="165.85" y="215.29" width="60.4" height="2.44" transform="translate(392.1 433.02) rotate(180)"/><rect class="cls-7" x="165.85" y="221.46" width="60.4" height="2.44" transform="translate(392.1 445.36) rotate(180)"/><rect class="cls-7" x="165.85" y="227.63" width="60.4" height="2.44" transform="translate(392.1 457.7) rotate(180)"/><rect class="cls-7" x="165.85" y="233.8" width="60.4" height="2.44" transform="translate(392.1 470.03) rotate(180)"/><rect class="cls-7" x="165.85" y="239.96" width="60.4" height="2.44" transform="translate(392.1 482.37) rotate(180)"/><rect class="cls-7" x="165.85" y="246.13" width="60.4" height="2.44" transform="translate(392.1 494.71) rotate(180)"/><rect class="cls-7" x="165.85" y="252.3" width="60.4" height="2.44" transform="translate(392.1 507.05) rotate(180)"/><rect class="cls-12" x="566.61" y="198.42" width="69.6" height="135.51" transform="translate(867.59 -335.24) rotate(90)"/><rect class="cls-1" x="541.86" y="240.42" width="56.92" height="51.5" transform="translate(1140.63 532.34) rotate(180)"/><path class="cls-7" d="M549.21,251.68A6.1,6.1,0,1,0,554,246.9,6.1,6.1,0,0,0,549.21,251.68Z"/><polygon class="cls-8" points="557.88 280.83 598.78 280.83 578.33 253.11 557.88 280.83"/><polygon class="cls-7" points="541.86 280.85 575.62 280.85 558.74 262.8 541.86 280.85"/><rect class="cls-7" x="541.86" y="280.83" width="56.92" height="11.1"/><rect class="cls-1" x="608.31" y="240.42" width="48.49" height="3.53"/><rect class="cls-1" x="608.31" y="247.72" width="48.49" height="3.53"/><rect class="cls-1" x="608.31" y="255.03" width="48.49" height="3.53"/><rect class="cls-1" x="608.31" y="262.33" width="48.49" height="3.53"/><rect class="cls-1" x="608.31" y="269.63" width="48.49" height="3.53"/><rect class="cls-13" x="80.83" y="224.69" width="128.04" height="163.5"/><rect class="cls-14" x="80.83" y="224.69" width="128.04" height="12.24"/><path class="cls-6" d="M92.32,230.9a3.08,3.08,0,1,1-3.08-3.08A3.08,3.08,0,0,1,92.32,230.9Z"/><path class="cls-1" d="M104.89,230.9a3.08,3.08,0,1,1-3.08-3.08A3.07,3.07,0,0,1,104.89,230.9Z"/><path class="cls-9" d="M117.47,230.9a3.08,3.08,0,1,1-3.08-3.08A3.08,3.08,0,0,1,117.47,230.9Z"/><line class="cls-3" x1="80.83" y1="236.93" x2="208.86" y2="236.93"/><rect class="cls-8" x="89.75" y="351" width="62.8" height="5.87"/><rect class="cls-1" x="89.75" y="362.41" width="110.2" height="3.54"/><rect class="cls-1" x="89.75" y="369.15" width="110.2" height="3.54"/><rect class="cls-1" x="89.75" y="375.89" width="110.2" height="3.54"/><rect class="cls-1" x="89.85" y="244.24" width="110" height="99.53" transform="translate(289.69 588.02) rotate(180)"/><path class="cls-7" d="M104.05,266a11.78,11.78,0,1,0,9.25-9.25A11.8,11.8,0,0,0,104.05,266Z"/><polygon class="cls-8" points="120.81 322.33 199.85 322.33 160.33 268.76 120.81 322.33"/><polygon class="cls-7" points="89.84 322.38 155.1 322.38 122.47 287.5 89.84 322.38"/><rect class="cls-7" x="89.85" y="322.33" width="110" height="21.44"/><polygon class="cls-5" points="629.69 129.37 550.66 129.37 550.66 62.52 590.17 37.43 629.69 62.52 629.69 129.37"/><polygon class="cls-15" points="629.69 129.37 550.66 129.37 550.66 62.52 590.17 37.43 629.69 62.52 629.69 129.37"/><polygon class="cls-1" points="625.24 118.73 555.12 118.73 555.12 28.73 607.18 28.73 625.24 45.88 625.24 118.73"/><polygon class="cls-7" points="607.18 28.73 625.24 45.88 607.18 45.88 607.18 28.73"/><rect class="cls-7" x="561.96" y="43.83" width="38.98" height="2.31" transform="translate(1162.9 89.97) rotate(180)"/><rect class="cls-7" x="561.96" y="49.66" width="38.98" height="2.31" transform="translate(1162.9 101.64) rotate(180)"/><rect class="cls-7" x="561.96" y="55.5" width="38.98" height="2.31" transform="translate(1162.9 113.31) rotate(180)"/><rect class="cls-7" x="561.96" y="61.33" width="57.12" height="2.31" transform="translate(1181.04 124.97) rotate(180)"/><rect class="cls-7" x="561.96" y="67.16" width="57.12" height="2.31" transform="translate(1181.04 136.64) rotate(180)"/><rect class="cls-7" x="561.96" y="73" width="57.12" height="2.31" transform="translate(1181.04 148.31) rotate(180)"/><rect class="cls-7" x="561.96" y="78.83" width="57.12" height="2.31" transform="translate(1181.04 159.98) rotate(180)"/><rect class="cls-7" x="561.96" y="84.67" width="57.12" height="2.31" transform="translate(1181.04 171.64) rotate(180)"/><rect class="cls-7" x="561.96" y="90.5" width="57.12" height="2.31" transform="translate(1181.04 183.31) rotate(180)"/><rect class="cls-7" x="561.96" y="96.33" width="57.12" height="2.31" transform="translate(1181.04 194.98) rotate(180)"/><rect class="cls-7" x="561.96" y="102.17" width="57.12" height="2.31" transform="translate(1181.04 206.65) rotate(180)"/><rect class="cls-7" x="561.96" y="108" width="57.12" height="2.31" transform="translate(1181.04 218.31) rotate(180)"/><path class="cls-5" d="M629.69,79.25v50.12h-79V79.25c3.4,1.92,6.73,3.94,10.09,5.91s6.69,4,10,6q5.55,3.39,11.09,6.86A.47.47,0,0,0,582,98l-.09.09,8.29,5.18c2.76-1.73,5.52-3.47,8.29-5.18l-.1-.09a.45.45,0,0,0,.12.06c3.69-2.3,7.38-4.59,11.1-6.86q5-3,10-6C623,83.19,626.3,81.17,629.69,79.25Z"/><path class="cls-2" d="M629.69,79.25c-3.19,2.24-6.44,4.39-9.66,6.6s-6.49,4.32-9.75,6.46-6.83,4.44-10.25,6.63l-.3.21L590.62,105l-.45.27-.44-.27c-3-1.94-6.06-3.87-9.09-5.82l-.32-.2q-5.15-3.28-10.25-6.65c-3.25-2.12-6.51-4.28-9.75-6.44s-6.46-4.36-9.66-6.6c3.4,1.92,6.73,3.94,10.09,5.91s6.69,4,10,6q5.55,3.39,11.09,6.86s0,0,0,0l8.29,5.18c2.76-1.73,5.52-3.47,8.29-5.18,0,0,0,0,0,0,3.69-2.3,7.38-4.59,11.1-6.86q5-3,10-6C623,83.19,626.3,81.17,629.69,79.25Z"/><path class="cls-2" d="M582,98l-.09.09c-.42.35-.83.71-1.25,1-2,1.68-4,3.28-6.07,4.83-2.52,1.93-5.1,3.77-7.68,5.59s-5.21,3.58-7.88,5.28-5.37,3.39-8.16,4.92c2.4-2.1,4.89-4.06,7.41-6s5.1-3.76,7.68-5.59,5.22-3.59,7.89-5.29c2.12-1.37,4.28-2.71,6.49-4,.51-.3,1-.58,1.54-.87A.47.47,0,0,0,582,98Z"/><path class="cls-2" d="M629.5,119.76c-2.79-1.53-5.49-3.21-8.15-4.92s-5.28-3.48-7.89-5.28-5.16-3.66-7.68-5.59c-2-1.55-4.08-3.14-6-4.82-.43-.35-.85-.71-1.26-1.06l-.1-.09a.45.45,0,0,0,.12.06l1.54.88c2.21,1.26,4.36,2.6,6.5,4,2.67,1.7,5.28,3.48,7.88,5.29s5.16,3.67,7.68,5.59S627.11,117.66,629.5,119.76Z"/></g><g id="Character"><path class="cls-16" d="M454.05,485.47c2.37.76,70.13-.12,72.69-1.79,1-.62,1.43-10.5,1.63-22.45v-.38c0-2.46.08-5,.08-7.57,0-.35,0-.71,0-1.06l-3.29-35.15-45.32.45,4.47,34.82.05,1.38.28,7.21,0,.74s-25.78,11.94-28.4,14.08S451.67,484.71,454.05,485.47Z"/><path class="cls-1" d="M454.05,485.47c2.37.76,70.13-.12,72.69-1.79,1-.62,1.43-10.5,1.63-22.45v-.38c0-2.46.08-5,.08-7.57,0-.35,0-.71,0-1.06l-44.14.12.05,1.38.28,7.21,0,.74s-25.78,11.94-28.4,14.08S451.67,484.71,454.05,485.47Z"/><path class="cls-5" d="M454,485.46c1.22.4,19.63.35,37.63,0,3.61-.07,7.21-.15,10.64-.25,12.83-.35,23.44-.88,24.42-1.52s1.42-10.22,1.62-22c0-.16,0-.33,0-.49s0-.26,0-.39h0l-43.67.09,0,.74s-25.79,11.93-28.4,14.07S451.67,484.7,454,485.46Z"/><path class="cls-6" d="M454.78,482.83c11.42-.43,57.51-1.08,68.83-.64.09,0,.09.07,0,.08-11.31.67-57.4.94-68.83.75C454.54,483,454.54,482.84,454.78,482.83Z"/><path class="cls-6" d="M479.78,461.12c4.49-.9,10-.28,13.47,2.88.13.12,0,.31-.19.27a62.75,62.75,0,0,0-13.25-2.58A.29.29,0,0,1,479.78,461.12Z"/><path class="cls-6" d="M476.56,463.12c4.49-.9,10-.28,13.47,2.88.13.12,0,.31-.19.26a63.39,63.39,0,0,0-13.25-2.58A.28.28,0,0,1,476.56,463.12Z"/><path class="cls-6" d="M473.34,465.11c4.49-.89,10-.27,13.47,2.88.14.13,0,.31-.19.27a63.39,63.39,0,0,0-13.25-2.58A.29.29,0,0,1,473.34,465.11Z"/><path class="cls-6" d="M491.67,485.45c3.61-.07,7.21-.15,10.64-.25,12.83-.35,23.44-.88,24.42-1.52s1.42-10.22,1.62-22c0-.16,0-.33,0-.49s0-.26,0-.39h0C522.34,465,501.25,479.08,491.67,485.45Z"/><path class="cls-9" d="M481.67,461.08h48.8s-9.82-114-9.44-116c.49-2.55,18.7-73.86,22.19-87.34,5.25-20.2,9.34-35.9,9.34-35.9H511.2s-4.82,15.28-10.89,35.16c-9.9,32.31-23.12,76.78-24.43,87.59C473.76,362.08,481.67,461.08,481.67,461.08Z"/><path class="cls-6" d="M483.84,452.76c7.45-.16,5.31-.22,12.76-.29,3.65,0,27.62-.25,31,.32.07,0,.07.14,0,.15-3.41.57-27.38.36-31,.32-7.45-.07-5.31-.13-12.76-.29A.1.1,0,0,1,483.84,452.76Z"/><path class="cls-6" d="M511.85,338.15c1.6-7.06,4-14,6.07-20.89q6.35-21.11,12.77-42.19,3.19-10.54,6.43-21.07,1.64-5.33,3.29-10.63c1.09-3.47,2.33-6.9,3.31-10.39.39-1.43.61-.65.1,1.16-1,3.64-2,7.28-3.11,10.91q-3.15,10.78-6.34,21.56-6.35,21.45-12.8,42.86-3.23,10.74-6.46,21.48a86.72,86.72,0,0,0-2.64,10.38,48.11,48.11,0,0,0-.43,11.12c.47,7.46,1.33,14.92,2,22.37l2.07,22.39q2.07,22.29,4.09,44.57c.17,1.88.34,3.77.48,5.65,0,.63-.9.58-1,0-1.61-14.69-2.84-29.43-4.22-44.14l-4.11-43.92c-.35-3.67-.74-7.36-.74-11.05A45.63,45.63,0,0,1,511.85,338.15Z"/><path class="cls-6" d="M515.9,221.88c2.53,19.62,6,85.5,6.82,116.34,4.67-18.68,17.61-69.3,20.5-80.45,4.84-18.62,8.69-33.41,9.27-35.6a0,0,0,0,0,0,0,1.24,1.24,0,0,1,0-.19.42.42,0,0,0,0-.07Z"/><path class="cls-16" d="M505,485.47c2.37.76,70.13-.12,72.69-1.79,1-.62,1.43-10.5,1.63-22.45v-.38c0-2.46.08-5,.08-7.57,0-.35,0-.71,0-1.06l-3.28-35.15-45.33.45,4.47,34.82.06,1.38.27,7.21,0,.74s-25.79,11.94-28.41,14.08S502.62,484.71,505,485.47Z"/><path class="cls-1" d="M505,485.47c2.37.76,70.13-.12,72.69-1.79,1-.62,1.43-10.5,1.63-22.45v-.38c0-2.46.08-5,.08-7.57,0-.35,0-.71,0-1.06l-44.14.12.06,1.38.27,7.21,0,.74s-25.79,11.94-28.41,14.08S502.62,484.71,505,485.47Z"/><path class="cls-5" d="M505,485.46c1.22.4,19.63.35,37.63,0,3.61-.07,7.21-.15,10.64-.25,12.83-.35,23.44-.88,24.42-1.52s1.42-10.22,1.62-22c0-.16,0-.33,0-.49s0-.26,0-.39h-.05l-43.67.09,0,.74s-25.79,11.93-28.4,14.07S502.62,484.7,505,485.46Z"/><path class="cls-6" d="M505.73,482.83c11.42-.43,57.51-1.08,68.83-.64.09,0,.1.07,0,.08-11.3.67-57.4.94-68.83.75C505.49,483,505.49,482.84,505.73,482.83Z"/><path class="cls-6" d="M530.73,461.12c4.49-.9,10-.28,13.47,2.88.14.12,0,.31-.19.27a62.75,62.75,0,0,0-13.25-2.58A.29.29,0,0,1,530.73,461.12Z"/><path class="cls-6" d="M527.52,463.12c4.48-.9,10-.28,13.46,2.88.14.12,0,.31-.19.26a63.39,63.39,0,0,0-13.25-2.58A.28.28,0,0,1,527.52,463.12Z"/><path class="cls-6" d="M524.3,465.11c4.48-.89,10-.27,13.46,2.88.14.13,0,.31-.18.27a63.61,63.61,0,0,0-13.26-2.58A.29.29,0,0,1,524.3,465.11Z"/><path class="cls-9" d="M512.54,221.88s1,19.79,5.48,35.46c.37,1.3.76,2.57,1.19,3.8,0,0-.63-.51,6.57,3.91,0,0-2.78,78.68-2.9,83.38C522.47,366,535.24,461.8,535.24,461.8L584,462S566.6,353.37,566.67,346.93c.09-10.35,6.24-55.32,4.34-88.67a94.11,94.11,0,0,0-9.91-36.38Z"/><path class="cls-6" d="M536.91,453.12c7.46-.12,5.32-.19,12.77-.23,3.65,0,27.62-.13,31,.45a.08.08,0,0,1,0,.15c-3.41.55-27.38.24-31,.19-7.46-.11-5.32-.16-12.77-.34A.11.11,0,0,1,536.91,453.12Z"/><path class="cls-6" d="M558.19,224.83c6.17,11.87,8.47,25.37,9,38.6.55,14.37-1.17,28.71-2.69,43-1.59,15-3,30-1.82,45.12,1.16,15.24,3.86,30.37,6,45.49s4.49,30.23,6.37,45.39c.23,1.92.47,3.84.7,5.76,0,.09-.14.14-.16,0-2.67-14.93-4.87-30-7.15-45s-4.84-29.89-6.39-44.93-.89-29.94.62-44.93c1.45-14.44,3.36-28.87,3.41-43.4,0-13.52-1.32-27.35-6.11-40.08-.63-1.7-1.33-3.39-2-5.06C557.85,224.6,558.06,224.59,558.19,224.83Z"/><path class="cls-6" d="M517.18,260a90.73,90.73,0,0,1,14,7.3.16.16,0,0,1-.15.29c-4.71-2.29-9.51-4.49-14.09-7A.32.32,0,0,1,517.18,260Z"/><path class="cls-6" d="M516.9,243.17c.33,1.73.75,3.45,1.12,5.17s.61,3.27,1,4.87a8.21,8.21,0,0,0,2.27,4.08c.63.59,1.33,1.11,2,1.65.36.29.75.57,1.13.87-.05-.23-.09-.47-.13-.7l-.33-2c-.25-1.46-.48-2.92-.71-4.38-.44-2.88-.84-5.79-1.44-8.64a.09.09,0,0,1,.18,0c.71,2.82,1.51,5.61,2.13,8.46.31,1.4,1.4,8.29,1.45,8.78s.09,1,.11,1.51a6.7,6.7,0,0,1,0,1.55c0,.13-.18.11-.24,0h0a6,6,0,0,1-.44-1.5c-.13-.49-.24-1-.33-1.49,0-.18-.06-.37-.08-.55-.68-.42-1.31-1-1.95-1.42s-1.38-1-2-1.52a7.82,7.82,0,0,1-2.48-3.87,27.74,27.74,0,0,1-.81-5c-.22-2-.38-3.92-.66-5.88C516.71,243.1,516.88,243.05,516.9,243.17Z"/><path class="cls-16" d="M520.59,168.43c.14,8.93-5.54,50.93-14.05,60.66C495.29,242,475,259.3,471,258.65c-3.8-.63-19-22.12-16.21-25.12S483,214,486.22,210.79c2.17-2.19,14.86-27,22.19-40C515,159,520.4,156.14,520.59,168.43Z"/><path class="cls-5" d="M518.08,194.19l-25.57-1.44s14.45-24.18,20.71-30.09c7-6.66,8.9-1.6,8.72,7.61S518.08,194.19,518.08,194.19Z"/><path class="cls-6" d="M496.36,188.41c.89-.08,8.87.24,10.6.35s8.82.48,10.6.74a.06.06,0,1,1,0,.12c-1.79.08-8.94-.27-10.7-.35s-9.66-.57-10.52-.74C496.27,188.52,496.3,188.42,496.36,188.41Z"/><path class="cls-6" d="M521.94,170.27c-.18,9.2-3.86,23.92-3.86,23.92l-15-.84L516.94,160C520.94,158.26,522.08,163,521.94,170.27Z"/><path class="cls-5" d="M501.27,245.8c1.11,1.11,69.81-2.53,70.14-3,.91-1.21-23.08-73.38-39.18-85-3.47-2.49-13.35-.1-15.74,2.29-1.5,1.51-4.77,11-6.9,18.87C505.32,194.77,500.29,244.83,501.27,245.8Z"/><path class="cls-2" d="M543.1,173.18a7.57,7.57,0,0,1-.59-2.15.34.34,0,0,1,0-.14c.21.37.43.76.67,1.14A5,5,0,0,1,543.1,173.18ZM521.62,221.8a7.5,7.5,0,0,0,0,2.22,7.94,7.94,0,0,0,.59,2.14,7.85,7.85,0,0,0,0-2.22A7.77,7.77,0,0,0,521.62,221.8Zm19.2-12.12a7.85,7.85,0,0,0,0,2.22,7.77,7.77,0,0,0,.6,2.14,7.5,7.5,0,0,0,0-2.22A7.94,7.94,0,0,0,540.82,209.68Zm1.28,29.6a7.86,7.86,0,0,0,0,2.22,8,8,0,0,0,.6,2.14,7.84,7.84,0,0,0,0-2.22A7.75,7.75,0,0,0,542.1,239.28ZM563,226.45a7.85,7.85,0,0,0,0,2.22,7.77,7.77,0,0,0,.6,2.14,7.85,7.85,0,0,0,0-2.22A7.94,7.94,0,0,0,563,226.45Zm-45.92-40.38a8.23,8.23,0,0,0,0,2.22,7.59,7.59,0,0,0,.6,2.15,8.59,8.59,0,0,0-.63-4.37Zm0-22.86a8.23,8.23,0,0,0,0,2.22,7.44,7.44,0,0,0,.6,2.14,7.85,7.85,0,0,0,0-2.22A8,8,0,0,0,517.09,163.21Zm35,30.3a8.45,8.45,0,0,0,.62,4.37,8.73,8.73,0,0,0-.62-4.37Zm-20-13.08a7.85,7.85,0,0,0,2.22,0,7.75,7.75,0,0,0,2.14-.59,7.85,7.85,0,0,0-2.22,0A7.77,7.77,0,0,0,532.14,180.43Zm-8.95-22.08a7.5,7.5,0,0,0,2.22,0,7.59,7.59,0,0,0,2.14-.59,7.5,7.5,0,0,0-2.22,0A7.42,7.42,0,0,0,523.19,158.35Zm-13.44,20.13c-.06.19-.1.38-.16.57,0,0,0,0,0,0l.22,0a7.44,7.44,0,0,0,2.14-.6A8,8,0,0,0,509.75,178.48Zm4.39,23.16a8.77,8.77,0,0,0,4.37-.62,8.45,8.45,0,0,0-4.37.62Zm21.18-1.78a7.85,7.85,0,0,0,2.22,0,7.77,7.77,0,0,0,2.14-.6,7.5,7.5,0,0,0-2.22,0A7.94,7.94,0,0,0,535.32,199.86ZM530,234.22a7.85,7.85,0,0,0,2.22,0,7.44,7.44,0,0,0,2.14-.6,7.85,7.85,0,0,0-2.22,0A7.75,7.75,0,0,0,530,234.22Zm21.35-15.31a7.85,7.85,0,0,0,2.22,0,7.75,7.75,0,0,0,2.14-.59,7.85,7.85,0,0,0-2.22,0A8,8,0,0,0,551.31,218.91Zm-44.77,24.16a8.73,8.73,0,0,0,4.37-.62,8.45,8.45,0,0,0-4.37.62Zm-1.6-18a7.5,7.5,0,0,0,2.22,0,7.59,7.59,0,0,0,2.14-.59,7.85,7.85,0,0,0-2.22,0A7.77,7.77,0,0,0,504.94,225Zm27.72-60a8.6,8.6,0,0,0-2.64,3.52,8.6,8.6,0,0,0,2.64-3.52ZM507.27,190.3c-.06.37-.13.75-.19,1.12a6.87,6.87,0,0,0,.55-.66,7.77,7.77,0,0,0,1.09-1.93A7.47,7.47,0,0,0,507.27,190.3Zm38.16-4a8,8,0,0,0-1.55,1.59,7.65,7.65,0,0,0-1.09,1.94,8.55,8.55,0,0,0,2.64-3.53ZM527.08,206.8a8,8,0,0,0-1.55,1.59,7.83,7.83,0,0,0-1.09,1.94,8.55,8.55,0,0,0,2.64-3.53Zm-11.24,25a8,8,0,0,0-1.55,1.59,7.83,7.83,0,0,0-1.09,1.94,8.55,8.55,0,0,0,2.64-3.53Zm30-6.66a8.6,8.6,0,0,0-2.64,3.52,8.6,8.6,0,0,0,2.64-3.52Zm21.52,12.4a8,8,0,0,0-1.55,1.59,7.86,7.86,0,0,0-1.1,1.94,7.57,7.57,0,0,0,1.56-1.59A7.83,7.83,0,0,0,567.33,237.51Zm-62.34-32-.06.55a6.47,6.47,0,0,0,1.09.53A6.6,6.6,0,0,0,505,205.53Zm48.73,1.88a8.6,8.6,0,0,0-3.52-2.64,8.6,8.6,0,0,0,3.52,2.64Zm1.76,29.83a7.73,7.73,0,0,0-1.58-1.55A8,8,0,0,0,552,234.6a8.6,8.6,0,0,0,3.52,2.64Zm-31.41-59.06a8.51,8.51,0,0,0-3.52-2.65,7.77,7.77,0,0,0,1.59,1.55A8.13,8.13,0,0,0,524.07,178.18Zm10.25,43.06a8.6,8.6,0,0,0-3.52-2.64,8.6,8.6,0,0,0,3.52,2.64Zm-32.45,13.83a1.1,1.1,0,0,0-.14-.09c0,.22,0,.44-.05.66a7.63,7.63,0,0,0,1.77,1A7.73,7.73,0,0,0,501.87,235.07Zm28.42-41.93a8.51,8.51,0,0,0-3.52-2.65,8.75,8.75,0,0,0,3.52,2.65ZM515,215.71a8,8,0,0,0-1.59-1.55,7.55,7.55,0,0,0-1.94-1.1,8.46,8.46,0,0,0,3.53,2.65Zm10.53,27.62a8.51,8.51,0,0,0-3.52-2.65,7.53,7.53,0,0,0,1.59,1.55A8.13,8.13,0,0,0,525.5,243.33Z"/><rect class="cls-11" x="473.3" y="198.55" width="12.95" height="75.55" transform="translate(-31.59 392.99) rotate(-43.26)"/><polygon class="cls-6" points="539.12 285.11 524.86 298.53 524.86 298.53 488.7 260.1 488.7 260.1 502.96 246.68 502.96 246.68 539.12 285.11"/><path class="cls-17" d="M422.6,227.19a59,59,0,1,1,52-65.21A59.05,59.05,0,0,1,422.6,227.19ZM410.19,116.66a52.23,52.23,0,1,0,57.73,46.07A52.29,52.29,0,0,0,410.19,116.66Z"/><g class="cls-18"><path class="cls-2" d="M452.57,134.18A50.19,50.19,0,1,1,381.62,132,50.18,50.18,0,0,1,452.57,134.18Z"/><path class="cls-1" d="M460.75,145.79A50.27,50.27,0,0,1,439.2,213.1Z"/><path class="cls-1" d="M418.12,118.43,388.6,210.61a49.84,49.84,0,0,1-9.13-7.65,49.25,49.25,0,0,1-7.92-11.12l21.79-68.06A50.16,50.16,0,0,1,418.12,118.43Z"/><path class="cls-1" d="M449,130.71l-28.12,87.81a50.65,50.65,0,0,1-9.85,0L440.93,125A48.35,48.35,0,0,1,449,130.71Z"/><path class="cls-1" d="M425,119.19,394.61,214c-.56-.26-1.1-.53-1.64-.81l30.18-94.26C423.75,119,424.35,119.07,425,119.19Z"/><path class="cls-1" d="M379.83,133.79l-13.47,42.06c-.22-1.48-.37-3-.45-4.49l10.95-34.21C377.79,136,378.78,134.87,379.83,133.79Z"/></g><path class="cls-16" d="M544.11,167c5.84,6.75,30.23,39.8,30.15,55.14,0,9.41-23.8,36.32-30,42.63-2.69,2.75-22-14.08-21.85-18.2s23.46-27.95,24.52-30.84c0,0-8.31-26.78-12.72-41C530.06,161.23,533.2,154.38,544.11,167Z"/><path class="cls-16" d="M507.79,265.36c-3.54,3.26-10.9,4.62-9.36,7.85,1.37,2.88,6.38,1.44,6.38,1.44s-5.12,3.45-2.76,6.12,7.53,0,7.53,0-4.39,2.68-1.85,5.18,7.36,1,7.36,1-.73,1.63,1.86,2.59c3.71,1.37,11-3.1,14.24-6.34S544,265.7,545.37,263.48l-20.61-21s-8.43,3.09-12.52,5.18S496.6,260.34,499,263.38s10.47-4.59,12.85-6,3.11-1.14,2.55.34C514.07,258.66,509.36,263.91,507.79,265.36Z"/><path class="cls-6" d="M505,274.47c6.83-2.5,9.39-4.78,13.77-10.45.08-.11.27,0,.19.12-3.78,5.94-6.58,9.26-13.86,10.66C504.76,274.87,504.68,274.59,505,274.47Z"/><path class="cls-6" d="M509.26,280.79c6.87-3.22,9.67-5.66,14.69-11.26.07-.08.21,0,.15.12-4.47,5.91-7.33,9.15-14.62,11.46C509.15,281.22,509,280.94,509.26,280.79Z"/><path class="cls-6" d="M515.13,286.85c6.43-3.59,9.61-6.14,13.79-12.2a.13.13,0,1,1,.23.14c-3.65,6.6-7.6,9.8-13.89,12.25C514.83,287.2,514.73,287.08,515.13,286.85Z"/><path class="cls-5" d="M538.16,194.23l25.32-3.85s-16.66-22.71-23.45-28c-7.64-6-9-.75-8,8.4S538.16,194.23,538.16,194.23Z"/><path class="cls-6" d="M559.24,186.43c-.9,0-8.81,1.07-10.52,1.34s-8.74,1.31-10.49,1.73a.07.07,0,0,0,0,.13c1.79-.09,8.87-1.12,10.62-1.36s9.56-1.47,10.4-1.73C559.34,186.52,559.3,186.43,559.24,186.43Z"/><path class="cls-6" d="M540.16,193.91c-.77.06-2,.2-2,.2-1-2.8-4.86-17.39-5.85-20.89a0,0,0,1,0-.09,0c.44,2,.88,4,1.34,6l-.31-.72c-.35-.86-.74-1.7-1.06-2.57,0-.07-.14-.05-.12,0a20.8,20.8,0,0,0,.9,2.66c.26.6.56,1.19.87,1.77.27,1.15.53,2.3.83,3.44.93,3.52,1.75,7.2,2.95,10.63a14.16,14.16,0,0,0,2.56-.44A.09.09,0,0,0,540.16,193.91Z"/><path class="cls-16" d="M452.1,236.34a4.61,4.61,0,0,0,4.7,2.86s-2.4,3.75-.36,6.84c1.05,1.59,4.51,1.31,4.51,1.31s-1.79,3.09.19,5.73c1.58,2.09,4.81,1.5,4.81,1.5s-.34,3.76,2,5.39c4.65,3.29,24-8.29,22.71-17.2-.59-4.16-5.17-1.07-5.17-1.07s5.51-6,3.22-10.08-8,.32-8,.32,5.28-5.88,2.49-9.84c-2.91-4.12-7.86,1.22-7.86,1.22s2.56-5.49-.28-8c-4.67-4.19-9.81,8.34-14.66,9.87l-6.47-6.88S450.46,232.67,452.1,236.34Z"/><path class="cls-6" d="M466.47,254.56a.06.06,0,0,0,0,.11,39.15,39.15,0,0,0,19.22-13.11c.15-.2-.12-.54-.32-.35A80.16,80.16,0,0,1,466.47,254.56Z"/><path class="cls-6" d="M460.88,247.45c-.08,0,0,.17.07.14,7.5-2.37,15.6-7.91,20.07-15.61.16-.26,0-.65-.17-.36C477.48,236.51,467.43,244.25,460.88,247.45Z"/><path class="cls-6" d="M475.47,222.66c-4.58,7.22-11,12.25-18.36,16.46-.09.06,0,.19.09.16,4.15-1.08,8.56-4.25,11.78-7a22.53,22.53,0,0,0,6.74-9.45C475.78,222.67,475.57,222.51,475.47,222.66Z"/><path class="cls-11" d="M517.79,158.43c-3,2.21-5.72,13.14,1.1,14.69s13.16-9.23,14.09-12.71S524.24,153.64,517.79,158.43Z"/><path class="cls-16" d="M519.77,170.94c3.86.49,9.73-5.95,11.79-10.88.14-.34-.7-3.66-1.54-7.75-.5-2.48-1-5.26-1.26-7.82l-15.67,5.59a41.16,41.16,0,0,1,2.58,9.69,6.25,6.25,0,0,1,0,1.06,1.07,1.07,0,0,0,0,.18C515.55,163,516,170.46,519.77,170.94Z"/><path class="cls-6" d="M528,144.76c-.17,3.25-1.4,15-10.69,16.16a9.7,9.7,0,0,1-1.66.09.51.51,0,0,1,0-.18,6.25,6.25,0,0,0,0-1.06,41.43,41.43,0,0,0-2.6-9.69Z"/><path class="cls-16" d="M528.63,126.89c2,5.64-.13,22.34-4,26.24-5.63,5.65-15.27,6.66-20.17-.21-4.76-6.65-1.54-28.36,2.83-31.95C513.72,115.69,525.61,118.57,528.63,126.89Z"/><path class="cls-6" d="M513.94,137.49s.09.07.08.12c-.18,1.12-.19,2.43.78,2.93,0,0,0,.07,0,.06C513.56,140.27,513.6,138.53,513.94,137.49Z"/><path class="cls-6" d="M515.1,136.45c1.82.08,1.51,3.73-.18,3.65S513.56,136.37,515.1,136.45Z"/><path class="cls-6" d="M507.44,137s-.09.05-.1.1c-.06,1.13-.32,2.42-1.37,2.7,0,0,0,.07,0,.07C507.23,139.77,507.56,138.06,507.44,137Z"/><path class="cls-6" d="M506.53,135.71c-1.8-.3-2.26,3.34-.59,3.61S508,136,506.53,135.71Z"/><path class="cls-6" d="M516.68,134.9a13,13,0,0,1-1.37-.62,2.4,2.4,0,0,1-1.28-.9.76.76,0,0,1,.21-.92,1.9,1.9,0,0,1,1.94,0,2.84,2.84,0,0,1,1.52,1.35A.83.83,0,0,1,516.68,134.9Z"/><path class="cls-6" d="M505.28,133.75a14.74,14.74,0,0,0,1.48-.25,2.45,2.45,0,0,0,1.46-.55.77.77,0,0,0,0-.94,1.93,1.93,0,0,0-1.88-.53,2.85,2.85,0,0,0-1.8.93A.83.83,0,0,0,505.28,133.75Z"/><path class="cls-6" d="M514.18,148.1c-.3.24-.6.58-1,.58a3,3,0,0,1-1.19-.39s-.08,0-.06.06a1.52,1.52,0,0,0,1.39.73,1.18,1.18,0,0,0,1-.92A.06.06,0,0,0,514.18,148.1Z"/><path class="cls-6" d="M513.28,144.61a3.87,3.87,0,0,1-2.72,1.5,5,5,0,0,1-1.39-.06l-.26-.05-.24-.06a.29.29,0,0,1-.21-.27h0s0-.08,0-.12h0v-.09c.05-.88.24-2.19.24-2.19-.33.13-2,.72-1.95.27a57.93,57.93,0,0,1,2.5-11.52.1.1,0,0,1,.2.05c-.38,3.62-1.4,7.14-1.85,10.77a6.8,6.8,0,0,1,1.87-.39c.12,0-.43,2.53-.42,2.93v0a5.36,5.36,0,0,0,4.09-.9C513.27,144.45,513.35,144.53,513.28,144.61Z"/><path class="cls-6" d="M509.83,145.86a4.53,4.53,0,0,0,1.82,1.41,2,2,0,0,0,1.24.07c.9-.24.92-1.06.76-1.76a5.08,5.08,0,0,0-.41-1.08A5.87,5.87,0,0,1,509.83,145.86Z"/><path class="cls-19" d="M511.65,147.27a2,2,0,0,0,1.24.07c.9-.24.92-1.06.76-1.76A2.11,2.11,0,0,0,511.65,147.27Z"/><path class="cls-6" d="M504.05,127.38s0,0,0,0l0,.07Z"/><path class="cls-6" d="M529.21,142.34c-3.1-.89-4.64-11.3-4.64-11.3s0,4.41-.82,4.31-4.2-6.12-4.57-10.42a33.47,33.47,0,0,1-7.87,3.81c-3.93,1.16-8.28.89-8.28.22,0-2,1.84-7.18,4.54-9a14,14,0,0,1,14-1.67c6.42,2.47,8.09,6.6,9,9.8S530.35,142.67,529.21,142.34Z"/><path class="cls-9" d="M514.92,144.27a5.49,5.49,0,0,1-3.87-6.72h0a5.48,5.48,0,1,1,5.22,6.9A5.22,5.22,0,0,1,514.92,144.27Zm-3.17-6.53a4.75,4.75,0,1,0,5.82-3.35,4.71,4.71,0,0,0-1.17-.16A4.76,4.76,0,0,0,511.75,137.74Z"/><path class="cls-9" d="M503.45,142.73c-2.23-.29-3.73-3-3.33-6a6.52,6.52,0,0,1,1.64-3.65,3.41,3.41,0,0,1,5.79.76,6.5,6.5,0,0,1,.65,4c-.37,2.83-2.3,4.95-4.39,4.93C503.69,142.75,503.57,142.75,503.45,142.73Zm-1.16-9.11a5.84,5.84,0,0,0-1.45,3.24c-.34,2.6.87,4.9,2.7,5.14s3.6-1.67,3.94-4.27a5.8,5.8,0,0,0-.57-3.5,2.92,2.92,0,0,0-2.13-1.64l-.28,0A3,3,0,0,0,502.29,133.62Z"/><path class="cls-9" d="M511.15,138.2l.54-.49c-.74-.8-2.52-2-4-.73l.46.56C509.48,136.42,511.08,138.13,511.15,138.2Z"/><path class="cls-9" d="M531.94,142.54l.69-.25c-.12-.32-1.18-3.15-2.77-3.62s-8.11-.58-8.53-.59l0,.73c2.82.1,7.19.21,8.34.56S531.66,141.77,531.94,142.54Z"/><path class="cls-16" d="M525,140.29s3.58-5.47,6-4.21-.1,9.11-2.92,10.26a2.91,2.91,0,0,1-3.94-1.44Z"/><path class="cls-6" d="M530.24,138.31a0,0,0,0,1,0,.08c-2,.87-3,2.76-3.65,4.71a1.62,1.62,0,0,1,2.39-.52s0,.12,0,.11a1.78,1.78,0,0,0-2,.69,8.69,8.69,0,0,0-.89,1.61c-.09.18-.41.1-.35-.11v0C525.64,142.29,527.51,138.66,530.24,138.31Z"/><path class="cls-5" d="M511.61,117.93a23.29,23.29,0,0,1,6.33-2.35c2.48-.48,10.41-.38,12.41,1.07s3,8.86,3.1,9.94.07,7.69-2.21,9.43-3.23-9.4-7.23-12.86S511.61,117.93,511.61,117.93Z"/><path class="cls-20" d="M511.61,117.93s8.4,1.77,12.39,5.23,5,14.6,7.24,12.86c1-.76,1.45-1.84,1.76-3.61-.71-3.23-2.36-8.2-5.31-11.53-2.76-3.12-7.25-4.49-12-4.71A26.58,26.58,0,0,0,511.61,117.93Z"/><path class="cls-5" d="M531,142.69c-.41-3-4-10.72-7.43-15.08s-13-6.41-14.28-6.25c-3.15.39-4.16,1.42-4.68,1.17s2.58-2.85,3.44-3.44,3.17-2,4.55-2.06,9.92.23,13.24,3.64,8.35,13.28,7.72,15.93c-.15.63-1,1.09-1.16,2-.27,1.18-.42,2.54-.72,3.37C531.47,142.63,531.06,143,531,142.69Z"/><path class="cls-6" d="M522.73,125.61a15.42,15.42,0,0,0,2-1.65,10.79,10.79,0,0,0,1.64-2s.12,0,.09,0a8.62,8.62,0,0,1-1.46,2.22,7.27,7.27,0,0,1-2.15,1.53C522.72,125.8,522.66,125.66,522.73,125.61Z"/><path class="cls-6" d="M530.86,139.72c.07-.22.2-.42.29-.63a3.47,3.47,0,0,0,.22-.76,7.19,7.19,0,0,1,.25-1.46,5.24,5.24,0,0,1,.63-1,2,2,0,0,0,.51-1.25c0-.06.09-.07.1,0a5.11,5.11,0,0,1-.85,2.37,10.38,10.38,0,0,0-.31,1.57,2.28,2.28,0,0,1-.7,1.3A.09.09,0,0,1,530.86,139.72Z"/><path class="cls-6" d="M529.62,136.57a13,13,0,0,0,.77-1.06,9.59,9.59,0,0,0,.57-1.16c.16-.39.29-.79.45-1.18s.42-.91.58-1.39c0-.06.11,0,.09.05-.17.49-.25,1-.4,1.5a9,9,0,0,1-.49,1.25,6.18,6.18,0,0,1-.63,1.12,3.12,3.12,0,0,1-.9.91A0,0,0,0,1,529.62,136.57Z"/><path class="cls-6" d="M528.35,133.73a8.27,8.27,0,0,0,1.5-1.93c.39-.7.74-1.42,1.07-2.15,0-.05.11,0,.1,0a10.25,10.25,0,0,1-.88,2.33,5.22,5.22,0,0,1-.7,1,5.77,5.77,0,0,1-1,.81A.05.05,0,0,1,528.35,133.73Z"/><path class="cls-6" d="M527,131a3.17,3.17,0,0,0,.74-.85c.23-.35.46-.71.68-1.07s.42-.69.63-1a3.1,3.1,0,0,0,.46-1.13s.1,0,.1,0a3.22,3.22,0,0,1-.27,1.18,7.57,7.57,0,0,1-.6,1.21,10.13,10.13,0,0,1-.76,1.09,1.92,1.92,0,0,1-.92.72C527,131.17,526.92,131.07,527,131Z"/><path class="cls-6" d="M525.91,127.55c.26-.29.51-.58.75-.89s.45-.62.66-.94.46-.67.66-1a0,0,0,0,1,.09,0,7.86,7.86,0,0,1-.48,1.12,8.15,8.15,0,0,1-.65,1,9.64,9.64,0,0,1-.76.91,3,3,0,0,1-.93.74s-.11,0-.08-.09A6.08,6.08,0,0,1,525.91,127.55Z"/><path class="cls-6" d="M520.34,124.07a13.08,13.08,0,0,1,.84-1.12,14,14,0,0,1,1-1,12.15,12.15,0,0,1,2.21-1.7s.11,0,.07.07c-1.33,1.3-2.72,2.54-4,3.85C520.37,124.17,520.31,124.12,520.34,124.07Z"/><path class="cls-6" d="M518.38,121.64a6.12,6.12,0,0,1,.94-1,14.11,14.11,0,0,1,2.46-1.58c.05,0,.11,0,.06.08-.74.56-1.49,1.11-2.19,1.72a11.24,11.24,0,0,0-1,.94c-.31.34-.55.73-.84,1.08,0,0-.08,0-.07,0A3.42,3.42,0,0,1,518.38,121.64Z"/><path class="cls-6" d="M515.82,120.63a7,7,0,0,1,.87-1,7.58,7.58,0,0,1,2.09-1.42c.05,0,.09,0,.05.09a13.74,13.74,0,0,0-2,1.62c-.31.29-.59.61-.88.92a11.2,11.2,0,0,1-.85,1s-.06,0,0,0A7,7,0,0,1,515.82,120.63Z"/><path class="cls-6" d="M513.94,119.27c.29-.28.6-.53.91-.79a4.09,4.09,0,0,1,1-.65s.08,0,0,.09c-.57.52-1.14,1.06-1.71,1.6a9.93,9.93,0,0,0-1.28,1.73s-.06,0-.06,0A3.82,3.82,0,0,1,513.94,119.27Z"/><path class="cls-6" d="M511.67,118.94a6,6,0,0,1,1.91-1.37s.09.06,0,.09a7.28,7.28,0,0,0-1.71,1.47A10.06,10.06,0,0,0,510.6,121s-.08,0-.07,0A5.11,5.11,0,0,1,511.67,118.94Z"/><path class="cls-6" d="M508.84,120.46a4,4,0,0,1,.22-.47,4.7,4.7,0,0,1,.61-.85,10.7,10.7,0,0,1,1.6-1.41c.05,0,.11,0,.06.08a8.13,8.13,0,0,0-1.49,1.44,6.92,6.92,0,0,0-.59.83c-.08.14-.16.29-.23.44a3.61,3.61,0,0,1-.22.44.05.05,0,0,1-.09,0A1.32,1.32,0,0,1,508.84,120.46Z"/><path class="cls-6" d="M507.06,120.74a7,7,0,0,1,.5-.71,6.87,6.87,0,0,1,.58-.63c.21-.21.43-.4.63-.62.05,0,.12,0,.07.08a5.25,5.25,0,0,0-.59.66l-.52.66-.51.66c-.17.22-.32.48-.51.68,0,0-.09,0-.07,0A3.62,3.62,0,0,1,507.06,120.74Z"/></g><g id="Plant"><path class="cls-5" d="M718.22,289.21c-12.67,17.15-25.87,37.06-29.09,58.57a.29.29,0,0,0,.56.1,128.67,128.67,0,0,1,5.6-17.22c8.33-2.29,16.5-4.17,20.87-12.44,4.46-8.49,3.9-19.57,3.05-28.82C719.15,288.9,718.48,288.88,718.22,289.21Z"/><path class="cls-6" d="M695.42,330.5c5.69-12.77,13-25.59,22.27-36.09.07-.07.16,0,.11.11-6.08,7.47-10.7,15.62-15.21,23.9,4.19-4.25,8.79-8.07,12.76-12.58.08-.09.2,0,.13.12-4,4.74-8.26,9.88-13.39,13.38q-2.07,3.82-4.18,7.65c.34-.2.7-.37,1.05-.54.07,0,.12.06.06.09-.39.2-.78.41-1.19.58-.66,1.21-1.32,2.41-2,3.62C695.67,331,695.3,330.77,695.42,330.5Z"/><path class="cls-6" d="M699.65,326.05a75.42,75.42,0,0,0,9.72-6.49c.08-.07.2,0,.12.12a52.07,52.07,0,0,1-9.7,6.61C699.63,326.37,699.49,326.14,699.65,326.05Z"/><path class="cls-5" d="M687.67,344.58a.23.23,0,0,0,.46,0c.06-7.09,0-14.2.11-21.32,1.82-3.66,5.71-5.69,8.42-8.62a38,38,0,0,0,5.05-7A50.53,50.53,0,0,0,707.57,288c.75-7.58-2.12-32.58-5.32-31.71-1.66.45-7,12.83-8.44,16.93a118.15,118.15,0,0,0-5,20.76C686.18,310.69,686.4,327.8,687.67,344.58Z"/><path class="cls-6" d="M687.61,314l0,0c.38-9,2.4-18,4.29-26.7,2-9.37,4.42-18.19,9.24-26.54.09-.16.32,0,.24.14A98.1,98.1,0,0,0,694,281.26c.32-.51.71-1,1-1.46.13-.19.44,0,.31.18a13.28,13.28,0,0,1-1.5,2.12.11.11,0,0,1-.07,0c-1.66,6.7-2.85,13.54-3.87,20.37.08-.08.15-.18.23-.26s.14,0,.11.08c-.13.23-.27.45-.41.68-.51,3.47-1,6.93-1.47,10.35,6.17-5.27,11.45-11.49,14.42-19.15,0,0,.07,0,.06,0-2.92,8-7.51,15-14.58,19.84-.13.92-.25,1.85-.39,2.77,0,.19-.33.14-.33-.05,0-.81.05-1.63.08-2.45A.2.2,0,0,1,687.61,314Z"/><path class="cls-6" d="M690.52,301c4.72-7,9.13-13.87,12.58-21.66,0-.08.19,0,.15.07-2.91,7.73-7,15.57-12.49,21.78C690.65,301.34,690.43,301.18,690.52,301Z"/><path class="cls-6" d="M696.79,277.64c2-3.46,4-6.83,5.86-10.35.05-.1.18,0,.14.08a53.35,53.35,0,0,1-5.7,10.44A.17.17,0,0,1,696.79,277.64Z"/><path class="cls-6" d="M696,279.14a0,0,0,0,1,0,.06A0,0,0,0,1,696,279.14Z"/><path class="cls-5" d="M682.87,324.09a72.63,72.63,0,0,1-1.65,14c.07.5.14,1,.22,1.53A66.91,66.91,0,0,0,683.93,324a.46.46,0,0,0,0-.48v0a102.8,102.8,0,0,0-1.56-21.07c-2.19-13-7-25.52-16.07-35.27a.65.65,0,0,0-1,.2c-3.66,9.32-2.39,20.44.74,29.73a54.25,54.25,0,0,0,7.2,14.12C676.37,315.61,680.34,319.31,682.87,324.09Z"/><path class="cls-6" d="M667.4,271.54c8.6,14,14.59,30.52,15.32,47,0,.3-.48.37-.52.08-.2-1.49-.43-3-.67-4.42h0c-3.56-3.41-7.22-7-9.77-11.27a.08.08,0,0,1,.13-.1,117.32,117.32,0,0,0,9.48,10.33q-.92-5.48-2.21-10.78c-.23-.26-.45-.53-.68-.8s.1-.43.25-.25l.21.23a124.65,124.65,0,0,0-4.5-14.29c-2.19-2.61-4.64-4.87-6.23-8a.06.06,0,0,1,.11-.06c1.28,1.8,2.53,3.61,4,5.28.58.66,1.22,1.29,1.82,1.93a110.13,110.13,0,0,0-7.05-14.68C666.94,271.52,667.27,271.33,667.4,271.54Z"/><path class="cls-6" d="M669.14,288.76c2.78,3.75,6,7.32,8.53,11.19.08.11-.09.22-.18.13-3.32-3.11-6.13-7.37-8.54-11.21C668.87,288.75,669.06,288.65,669.14,288.76Z"/><path class="cls-6" d="M678.06,300.81l.12.12a.09.09,0,0,1-.13.13l-.12-.12C677.85,300.86,678,300.73,678.06,300.81Z"/><path class="cls-5" d="M653.92,298.38A42.85,42.85,0,0,0,663,319.69a22.64,22.64,0,0,0,7.36,5.74c3.19,1.58,6.53,3.4,9.83,4.69a64.94,64.94,0,0,1,3.48,12.36l.31-1.09c-2.11-18.19-13.88-33.74-28.94-43.72A.73.73,0,0,0,653.92,298.38Z"/><path class="cls-6" d="M659.12,303.76c-.11-.1,0-.29.15-.2a61.65,61.65,0,0,1,19.19,23.64c.11.25-.24.47-.38.22-.7-1.23-1.41-2.42-2.14-3.59h0c-3.43-.65-6.69-3.06-9.24-5.36-.07-.06,0-.16.1-.1a20.89,20.89,0,0,0,4.35,3.05c1.4.71,2.91,1.16,4.37,1.73-1.28-2-2.6-4-4-5.84a40.22,40.22,0,0,1-10.33-5.8c-.09-.08,0-.24.1-.17a103.05,103.05,0,0,0,9.6,5.13,85.49,85.49,0,0,0-6.78-7.9c-1.17-.62-2.35-1.24-3.48-1.9-.1-.05,0-.21.07-.17a12.46,12.46,0,0,1,2.67,1.31C662,306.44,660.62,305.08,659.12,303.76Z"/><path class="cls-6" d="M659.44,310a4.67,4.67,0,0,1,.58.41c.05.05,0,.12-.08.1a4.48,4.48,0,0,1-.6-.35C659.24,310.14,659.33,310,659.44,310Z"/><polygon class="cls-9" points="707.48 381.87 666.22 381.87 669.55 344.3 670.28 336.01 703.42 336.01 704.15 344.3 707.48 381.87"/><polygon class="cls-6" points="704.15 344.3 669.55 344.3 670.28 336.01 703.42 336.01 704.15 344.3"/><rect class="cls-9" x="668.31" y="330.22" width="37.08" height="8.2"/></g></svg>