<svg xmlns="http://www.w3.org/2000/svg" viewBox="0 0 116.83 115.8"><defs><style>.cls-1{fill:#d3a67f;}.cls-2{fill:#242b30;}.cls-3{fill:#85969e;}.cls-4{fill:#eac9b2;}</style></defs><title>p1</title><g id="Layer_2" data-name="Layer 2"><g id="Graphics"><path class="cls-1" d="M114.71,115.8l-1.39-26.32A17,17,0,0,0,99.6,76.36L74.52,72.62a5.13,5.13,0,0,1-4-5l-.55-11H45.9l-.57,11.45a4.74,4.74,0,0,1-4,4.44L16.57,76.36A17,17,0,0,0,2.85,89.48L1.46,115.8Z"/><path class="cls-2" d="M74.54,115.8l5.75-42.55-5-.72c-2.21-.35-5.16-2.89-4.89-7.16A30.14,30.14,0,0,1,58.12,68a28.42,28.42,0,0,1-12.53-2.93c-.26,4.79-2.48,7.07-4.7,7.42l-4.48.6,7.15,42.67Z"/><path class="cls-3" d="M116.83,115.8l-.67-24c0-9.18-5.27-14-14-15.82L77,72.84,66,115.8Z"/><path class="cls-1" d="M39.76,27.58l-1.41.09a5.11,5.11,0,0,0-3.88,5.81c.49,2.93.72,3.18,1.32,6.83.84,5.14,5.06,3.46,5.06,3.46Z"/><path class="cls-1" d="M76.81,27.58l1.41.09a5.09,5.09,0,0,1,3.87,5.81c-.48,2.93-.72,3.18-1.32,6.83-.84,5.14-5,3.46-5,3.46Z"/><path class="cls-4" d="M58.48,10.17h0l19.6.16-.42,38.58A9.64,9.64,0,0,1,75,55.54l-5.9,6.14a9.08,9.08,0,0,1-6.53,2.78H54.22a9,9,0,0,1-6.52-2.78l-5.9-6.14a9.62,9.62,0,0,1-2.66-6.63l-.57-38.64Z"/><path class="cls-3" d="M50.8,115.8,39.73,72.7,14.76,76C6.05,77.79.78,82.6.78,91.78L0,115.8Z"/><path class="cls-2" d="M38.83,30.32s-.09-9.66,0-10.91c.53-6.13,9-7.11,11.63-7.37,3.53-.34,9.58-.17,14.93-.26,0,0,4.65-5,4.17-5.31C63.71,3,55.45-.45,49.24.05,38.63.91,32.9,8.21,34.67,16.21c.42,1.88,1.42,6.22,2.14,8.71C38.15,29.61,38.83,30.32,38.83,30.32Z"/><path class="cls-2" d="M63.81,5.47c4.8-3.74,20.08-1.69,17.06,13.32-1.22,6.05-3.06,13.33-3.06,13.33s-.27-2.22-.27-9.15c0-8.8-9.37-11-12-11l-10.22-.09S59,9.2,63.81,5.47Z"/><path class="cls-2" d="M66.69,48H50.19a6.45,6.45,0,0,0-3.79,1.23,2.81,2.81,0,0,0-1,3.2l2.72,7.81c.85,2.41,2.53,4.7,5.07,5,.31,0,.62.05.93.05h8.51a11.18,11.18,0,0,0,1.29-.09c2.48-.36,4-2.66,4.87-5l2.69-7.7a2.81,2.81,0,0,0-1-3.2A6.45,6.45,0,0,0,66.69,48Zm.3,6.23-1.44,4.91a3.29,3.29,0,0,1-4.62,2L59,59.92a.72.72,0,0,0-.57-.21,1.68,1.68,0,0,0-.44.14l-2,1.32a3.29,3.29,0,0,1-4.62-2l-1.44-4.91a3,3,0,0,1,2.83-3.78H64.16A3,3,0,0,1,67,54.24Z"/></g></g></svg>