<svg xmlns="http://www.w3.org/2000/svg" viewBox="0 0 116.83 113.69"><defs><style>.cls-1{fill:#ffe1cc;}.cls-2{fill:#d1dde0;}.cls-3{fill:#242b30;}.cls-4{fill:#e8c5ac;}.cls-5{fill:#6f7177;}.cls-6{fill:#fff;}</style></defs><title>p2</title><g id="Layer_2" data-name="Layer 2"><g id="Graphics"><path class="cls-1" d="M114.71,113.69l-1.4-26.32A17,17,0,0,0,99.59,74.25L74.52,70.51a5.12,5.12,0,0,1-4-5l-.55-11H45.89L45.33,66a4.73,4.73,0,0,1-4,4.43L16.57,74.25A17,17,0,0,0,2.85,87.37L1.46,113.69Z"/><path class="cls-2" d="M74.54,113.69l5.51-42.82-4.78-.46a4.73,4.73,0,0,1-4-4.43L58.08,78.84,44.89,66a4.72,4.72,0,0,1-4,4.43l-4.78.46,7.45,42.82Z"/><path class="cls-3" d="M116.83,113.69l-.67-24c0-9.17-5.27-14-14-15.81L80.53,71.41,66,113.69Z"/><path class="cls-4" d="M68.87,63.23l1.48-1.55L70,54.52H45.89l-.33,6.72,1.92,2A9.07,9.07,0,0,0,54,66h8.34A9.08,9.08,0,0,0,68.87,63.23Z"/><path class="cls-4" d="M39.76,27.6l-1.42.09a5.11,5.11,0,0,0-3.87,5.81c.49,2.94.72,3.19,1.32,6.82.84,5.15,5.06,3.47,5.06,3.47Z"/><path class="cls-4" d="M76.81,27.6l1.41.09a5.09,5.09,0,0,1,3.87,5.81c-.48,2.94-.72,3.19-1.32,6.82-.84,5.15-5,3.47-5,3.47Z"/><path class="cls-1" d="M58.47,10.19h0l19.6.16-.42,36.44A9.62,9.62,0,0,1,75,53.43l-5.89,6.14a9.08,9.08,0,0,1-6.53,2.77H54.22a9.07,9.07,0,0,1-6.52-2.78l-5.9-6.14a9.59,9.59,0,0,1-2.66-6.63l-.58-36.51Z"/><path class="cls-5" d="M71.53,113.69l9.24-13.49c1.16-1.47,2.2-2.45.27-4.69l-6.32-7.89h6.84c2,0,2.23-.37,2.23-2.68L83.41,72a1.94,1.94,0,0,0-.25-.62,1.78,1.78,0,0,0-.55-.31L76.3,69.82,64.68,113.69Z"/><path class="cls-3" d="M56,94.89,55,113.69h6.2l-1-18.91a7,7,0,0,1,.33-2.48L63,87.51l-4.81-8.42v-.2l-.06.1,0-.1v.2l-4.82,8.42,2.4,4.92A5,5,0,0,1,56,94.89Z"/><path class="cls-3" d="M50.8,113.69,36.7,71.16,14.76,73.85c-8.71,1.83-14,6.64-14,15.81l-.78,24Z"/><path class="cls-5" d="M34.53,87.63h6.84l-6.32,7.89c-1.93,2.24-.89,3.22.26,4.69l9.46,13.49h6.94l-12-43.5-6,.91s-.72.06-.92.52a4.84,4.84,0,0,0-.12.67L32.29,85C32.29,87.26,32.55,87.63,34.53,87.63Z"/><path class="cls-6" d="M45.51,64.32c-1-1.18-1.49-1.49-2.2-.08l-3.68,6L51,89.39c.79,1.33,1.41,1.25,2.12-.08l5-10.42Z"/><path class="cls-6" d="M70.66,64.32c1-1.18,1.49-1.49,2.19-.08l3.68,6L65.18,89.39c-.79,1.33-1.42,1.25-2.12-.08L58,78.89Z"/><path class="cls-3" d="M38.83,30.34s-.09-9.66,0-10.91c.53-6.13,9-7.11,11.63-7.37,3.53-.34,9.58-.16,14.93-.26,0,0,5.51-7.29,5-7.47A102.46,102.46,0,0,0,49.24.07C38.64-.9,32.9,8.24,34.67,16.24c.42,1.87,1.42,6.22,2.14,8.7C38.15,29.64,38.83,30.34,38.83,30.34Z"/><path class="cls-3" d="M63.81,5.49c4.8-3.74,20.08-1.69,17.06,13.32-1.22,6.05-3.06,13.33-3.06,13.33s-.27-2.22-.27-9.15c0-8.79-9.38-11-12-11l-10.22-.09S59,9.22,63.81,5.49Z"/></g></g></svg>