<svg xmlns="http://www.w3.org/2000/svg" viewBox="0 0 113.25 116.79"><defs><style>.cls-1{fill:#ffe1cc;}.cls-2{fill:#242b30;}.cls-3{fill:#e8c5ac;}.cls-4{fill:#fff;}</style></defs><title>p3</title><g id="Layer_2" data-name="Layer 2"><g id="Graphics"><path class="cls-1" d="M113.25,116.79l-1.39-26.32A17,17,0,0,0,98.13,77.35L73.06,73.61a5.13,5.13,0,0,1-4-5l-.55-11H44.43l-.56,11.45a4.73,4.73,0,0,1-4,4.44L15.11,77.35A17,17,0,0,0,1.39,90.47L0,116.79Z"/><path class="cls-2" d="M111.86,90.47A17,17,0,0,0,98.13,77.35l-19.6-2.92.06-.45-4.78-.46a4.74,4.74,0,0,1-4-4.44L56.62,81.94,43.43,69.08a4.73,4.73,0,0,1-4,4.44L34.65,74l.06.34-19.6,3A17,17,0,0,0,1.39,90.47L0,116.79H113.25Z"/><path class="cls-3" d="M67.41,66.33l1.48-1.55-.36-7.15H44.43l-.33,6.71,1.92,2a9.07,9.07,0,0,0,6.52,2.78h8.34A9.08,9.08,0,0,0,67.41,66.33Z"/><path class="cls-3" d="M75.35,30.7l1.41.09a5.1,5.1,0,0,1,3.87,5.82c-.48,2.93-.72,3.18-1.32,6.82-.84,5.14-5,3.47-5,3.47Z"/><path class="cls-3" d="M38.29,30.7l-1.41.09A5.11,5.11,0,0,0,33,36.61c.49,2.93.72,3.18,1.32,6.82.84,5.14,5.06,3.47,5.06,3.47Z"/><path class="cls-1" d="M56.63,13.29h0L37,13.45l.42,36.45a9.6,9.6,0,0,0,2.67,6.63L46,62.67a9.07,9.07,0,0,0,6.52,2.78h8.34a9,9,0,0,0,6.53-2.78l5.89-6.14A9.58,9.58,0,0,0,76,49.89l.57-36.5Z"/><path class="cls-4" d="M44.05,67.42c-1-1.17-1.49-1.48-2.2-.08l-3.68,6L49.53,92.49c.78,1.34,1.41,1.26,2.12-.07l5-10.42Z"/><path class="cls-4" d="M69.2,67.42c1-1.17,1.49-1.48,2.19-.08l3.68,6L63.71,92.49c-.78,1.34-1.41,1.26-2.11-.07L56.59,82Z"/><path class="cls-2" d="M47.69,5.13S31,5,33.17,17c1.52,8.41,2.12,12.33,3.33,16.4.14.48.8,1.86.8,1.86s0-4,.26-10.93c.27-6.13,4.53-8.26,6.67-8.52s5.86-.27,5.86-.27Z"/><path class="cls-2" d="M76.27,33.44s-1.75-14.25-8.77-12c-10.66,3.46-20.3-1.78-21-4.26C45.16,12.94,43.78,8,48.84,3.88c10.4-8.53,32.25-2.4,30.65,12.53-.2,1.9-.94,7.58-1.55,11.1C77.11,32.33,76.27,33.44,76.27,33.44Z"/><path class="cls-2" d="M48.68,51.47a2.86,2.86,0,0,0,1.93-.95C52,49.11,54,49.23,56.19,49.18s4.6-.07,6.15,1.34a3,3,0,0,0,2,.95,1.14,1.14,0,0,0,1.07-1.3c0-.13,0-.24,0-.35a3.74,3.74,0,0,0-1.79-2.6l-5.45-3a3.86,3.86,0,0,0-1.57-.34h-.08a3.87,3.87,0,0,0-1.58.34l-5.45,3a3.77,3.77,0,0,0-1.79,2.6,2.26,2.26,0,0,1,0,.35A1.15,1.15,0,0,0,48.68,51.47Z"/></g></g></svg>