<svg id="_Layer_" data-name="&lt;Layer&gt;" xmlns="http://www.w3.org/2000/svg" xmlns:xlink="http://www.w3.org/1999/xlink" viewBox="0 0 3024.08 1903.19"><defs><style>.cls-1{fill:#f5d100;}.cls-2{fill:#eb8175;}.cls-3{opacity:0.3;}.cls-4{fill:#ffc727;}.cls-5{opacity:0.5;}.cls-6{fill:#252525;}.cls-7{fill:#010117;}.cls-8{fill:#fff;}.cls-9{fill:#060632;opacity:0.16;}.cls-10{clip-path:url(#clip-path);}.cls-11{fill:#14103d;}.cls-12{fill:#231c61;}.cls-13{fill:#e1ad9d;}.cls-14{fill:#c8c6f2;}.cls-15{fill:#d8d7fd;}.cls-16{fill:#091218;}.cls-17{fill:#1b2934;}.cls-18{fill:#e16c5f;}.cls-19{clip-path:url(#clip-path-2);}.cls-20,.cls-21,.cls-23,.cls-24,.cls-25,.cls-26,.cls-27,.cls-29,.cls-30,.cls-35,.cls-36{fill:none;}.cls-20,.cls-23{stroke:#f1ab00;}.cls-20,.cls-23,.cls-25,.cls-26,.cls-27{stroke-miterlimit:10;}.cls-20{stroke-width:0.28px;}.cls-21,.cls-24{stroke:#fff;}.cls-21,.cls-24,.cls-29,.cls-30,.cls-35,.cls-36{stroke-linecap:round;stroke-linejoin:round;}.cls-21{stroke-width:1.12px;}.cls-22{clip-path:url(#clip-path-3);}.cls-23{stroke-width:0.28px;}.cls-24{stroke-width:1.13px;}.cls-25,.cls-29,.cls-35{stroke:#010117;}.cls-25,.cls-29{stroke-width:3px;}.cls-26,.cls-27{stroke:#231c61;}.cls-26{stroke-width:2.16px;}.cls-27{stroke-width:1.11px;}.cls-28{fill:#ffb027;}.cls-30{stroke:#5571e9;stroke-width:2.65px;}.cls-31{clip-path:url(#clip-path-4);}.cls-32{fill:#fafafa;}.cls-33{fill:#e8c400;}.cls-34{clip-path:url(#clip-path-5);}.cls-35{stroke-width:5px;}.cls-36{stroke:#3d5ac4;stroke-width:1.14px;}</style><clipPath id="clip-path" transform="translate(-48.24 -53.82)"><rect class="cls-1" x="852.78" y="1317.65" width="1426.21" height="157.44"/></clipPath><clipPath id="clip-path-2" transform="translate(-48.24 -53.82)"><path class="cls-2" d="M941.77,594.31a46.95,46.95,0,1,0,62.42-22.65A46.95,46.95,0,0,0,941.77,594.31Z"/></clipPath><clipPath id="clip-path-3" transform="translate(-48.24 -53.82)"><path class="cls-2" d="M1832.47,1297.19a47.49,47.49,0,1,0,66.83-6.65A47.49,47.49,0,0,0,1832.47,1297.19Z"/></clipPath><clipPath id="clip-path-4" transform="translate(-48.24 -53.82)"><path class="cls-1" d="M1054.5,1925.76l85.92-222a12.42,12.42,0,0,1,23.17,0l85.91,222Z"/></clipPath><clipPath id="clip-path-5" transform="translate(-48.24 -53.82)"><path class="cls-1" d="M2302,1926.45l85.91-222a12.42,12.42,0,0,1,23.17,0l85.92,222Z"/></clipPath></defs><title>uc</title><g class="cls-3"><path class="cls-4" d="M3042.08,1409.06c32.42-105.07,40-216.86,16.75-324.33-36.36-168.12-153.49-371.66-491.5-459.48C1927.42,459,1705.23-27.28,1106.64,127.57c0,0-321.23,58.38-473.26,589.92S-114.36,1258.08,90.75,1720.9c33.52,75.64,123.79,158.16,253.39,236.11l2427.49-8.16C2939.39,1747.15,2991.6,1572.68,3042.08,1409.06Z" transform="translate(-48.24 -53.82)"/></g><g class="cls-5"><path class="cls-4" d="M2469.3,1028.93h-91.08V929.3a105.46,105.46,0,0,0-81.55-102.66V703h-33.52v121.3a105.47,105.47,0,0,0-95.92,105v102.56h-90.6v114.29h-6.1v212.39l-164.68-1.18V1103.51H1717.16v186H1584.77v180.73h-160v478.38h531.59v-.07h114.18v.07h666.58V1345.39H2469.06Z" transform="translate(-48.24 -53.82)"/><polygon class="cls-4" points="541.71 1238.04 541.71 1000.23 630.86 1000.23 630.86 873.04 664.38 873.04 664.38 1000.23 746.51 1000.23 746.51 1238.04 838.67 1238.04 838.67 1380.52 985.52 1380.52 985.52 895.17 1292.13 895.17 1292.13 1894.83 1092.33 1894.83 1006.25 1894.83 789.68 1894.83 689.65 1894.83 428.3 1894.83 428.3 1238.04 541.71 1238.04"/></g><path class="cls-6" d="M2265,1946.23l-1397.43,1.09a95.83,95.83,0,0,1-95.9-95.76h0l1589.09-1.24h0A95.83,95.83,0,0,1,2265,1946.23Z" transform="translate(-48.24 -53.82)"/><path d="M2265,1913.24l-1397.43,1.09a95.79,95.79,0,0,1-89.93-62.77h-6a95.83,95.83,0,0,0,95.9,95.76L2265,1946.23a95.83,95.83,0,0,0,95.76-95.91h-5.95A95.81,95.81,0,0,1,2265,1913.24Z" transform="translate(-48.24 -53.82)"/><path d="M1656.52,1883l-180.54.14a32.07,32.07,0,0,1-32.11-32h0l244.71-.19h0A32.08,32.08,0,0,1,1656.52,1883Z" transform="translate(-48.24 -53.82)"/><path class="cls-7" d="M2279,1850.39,853.46,1851.5l-.68-860.44a89.38,89.38,0,0,1,89.31-89.45l1246.78-1A89.38,89.38,0,0,1,2278.32,990Z" transform="translate(-48.24 -53.82)"/><rect class="cls-8" x="879.08" y="921.64" width="1277.06" height="801.15"/><polygon class="cls-9" points="1304.94 919.36 879.37 1345.6 879.66 1720.84 880.58 1720.84 1681.1 919.07 1304.94 919.36"/><polygon class="cls-9" points="1044.55 1720.75 1233.14 1720.56 2033.66 918.79 1845.07 918.97 1044.55 1720.75"/><polygon class="cls-9" points="2006.51 1719.96 2156.6 1569.63 2156.38 1285.19 1705.83 1720.14 2006.51 1719.96"/><rect class="cls-1" x="804.54" y="1263.83" width="1426.21" height="157.44"/><g class="cls-10"><polygon class="cls-8" points="982.47 1476.51 859.75 1476.51 965.38 1234.88 1088.1 1234.88 982.47 1476.51"/><polygon class="cls-8" points="1244.16 1476.51 1121.45 1476.51 1227.08 1234.88 1349.79 1234.88 1244.16 1476.51"/><polygon class="cls-8" points="1505.86 1476.51 1383.14 1476.51 1488.77 1234.88 1611.48 1234.88 1505.86 1476.51"/><polygon class="cls-8" points="1767.55 1476.51 1644.84 1476.51 1750.46 1234.88 1873.18 1234.88 1767.55 1476.51"/><polygon class="cls-8" points="2029.24 1476.51 1906.53 1476.51 2012.16 1234.88 2134.87 1234.88 2029.24 1476.51"/></g><path class="cls-11" d="M738.27,1045.81l-27.88,1.07-16.32-5.17a17.74,17.74,0,0,0-20.07,7l-2,3.06,81.5,45L769.21,1063Z" transform="translate(-48.24 -53.82)"/><path class="cls-11" d="M753.48,1097.48l-82.15-45.37,2.87-5.2a2.13,2.13,0,0,1,2.89-.83l80.29,44.35-3.9,7" transform="translate(-48.24 -53.82)"/><polygon class="cls-2" points="720.97 1009.15 742.5 971.89 720.97 933.43 690.03 992 720.97 1009.15"/><path class="cls-11" d="M937.92,848.62s-116.16-33.33-127.34-2-79,170.12-79,170.12l50.58,26.38L858.07,911.4l102.07-8.88Z" transform="translate(-48.24 -53.82)"/><path class="cls-11" d="M843.5,1088.1l-22.75,14.49L804,1106a17.74,17.74,0,0,0-14.16,15.85l-.31,3.67,93.11-.15L880,1088.13Z" transform="translate(-48.24 -53.82)"/><path class="cls-11" d="M883,1126l-93.85.14v-5.93a2.12,2.12,0,0,1,2.12-2.13l91.72-.14,0,8.06" transform="translate(-48.24 -53.82)"/><polygon class="cls-2" points="831.76 1034.32 834.74 971.89 797.65 967.71 795.26 1034.29 831.76 1034.32"/><path class="cls-12" d="M953.6,843.29l-109.47,5s-15.75.86-14.69,37.72.95,185.17.95,185.17L883,1073,893,917.63l109.58-1.35c23.1-.29,44.59-13.53,53.73-34.75,3.5-8.11,5.17-17.21,3-26.77Z" transform="translate(-48.24 -53.82)"/><path class="cls-13" d="M849.71,821.21c0,10.39-7,12-17.41,12s-20.19-1.51-20.21-11.9a18.81,18.81,0,1,1,37.62-.08Z" transform="translate(-48.24 -53.82)"/><path class="cls-13" d="M862.92,831.83l-21.74,0a10.34,10.34,0,0,1-10.34-10.3h0a10.35,10.35,0,0,1,10.3-10.35l21.74,0a10.35,10.35,0,0,1,10.35,10.3h0A10.36,10.36,0,0,1,862.92,831.83Z" transform="translate(-48.24 -53.82)"/><path class="cls-14" d="M862.09,834l-7.25-35.59,89.38-9.74L962.1,684.29c1.8-9.49,15.54-21.27,25-19.47l-2.73-.77c9.49,1.8,18.21,12.83,16.41,22.32l-17.4,124.92a17.51,17.51,0,0,1-13,13.74Z" transform="translate(-48.24 -53.82)"/><path class="cls-15" d="M1040.64,667.12a19.07,19.07,0,0,1,5.37,1.24l.9.35c15.34,6,25.73,22.46,26.43,37.88l-14,148.17c-92.61-.8-105.77-11.47-105.77-11.47L961,691.72c1.13-14.29,7.69-27.74,24-29.09h0Z" transform="translate(-48.24 -53.82)"/><path class="cls-2" d="M938.65,832.86c.71,10.37-6.21,12.4-16.57,13.11s-20.25-.17-21-10.53a18.81,18.81,0,1,1,37.53-2.58Z" transform="translate(-48.24 -53.82)"/><path class="cls-2" d="M952.54,842.58l-21.69,1.49a10.36,10.36,0,0,1-11-9.6h0a10.36,10.36,0,0,1,9.6-11L951.12,822a10.36,10.36,0,0,1,11,9.6h0A10.36,10.36,0,0,1,952.54,842.58Z" transform="translate(-48.24 -53.82)"/><path class="cls-15" d="M951.85,844.83l-9.6-35,97.4-15.66-5.54-90.57c1.17-9.59,11.68-20.37,21.27-19.21h0c9.59,1.17,19,11.59,17.86,21.18l7,108.53a17.49,17.49,0,0,1-12.11,14.57Z" transform="translate(-48.24 -53.82)"/><path class="cls-16" d="M783.32,724.5l106.28,10a7.45,7.45,0,0,1,6.69,6.54l11.15,95.77a7.45,7.45,0,0,1-8.09,8.27l-108-10.19a7.43,7.43,0,0,1-6.7-6.68l-9.39-95.6A7.43,7.43,0,0,1,783.32,724.5Z" transform="translate(-48.24 -53.82)"/><path class="cls-17" d="M777.2,723.92l106.28,10a7.45,7.45,0,0,1,6.69,6.55l11.15,95.77a7.44,7.44,0,0,1-8.09,8.26l-108-10.19a7.43,7.43,0,0,1-6.7-6.68l-9.39-95.6A7.43,7.43,0,0,1,777.2,723.92Z" transform="translate(-48.24 -53.82)"/><path class="cls-16" d="M904.49,837.5l72.62,6.84a4,4,0,0,1,3.63,4.39h0a4,4,0,0,1-4.39,3.63l-77-7Z" transform="translate(-48.24 -53.82)"/><path class="cls-8" d="M838.11,782a11.63,11.63,0,1,1-10.49-12.67A11.64,11.64,0,0,1,838.11,782Z" transform="translate(-48.24 -53.82)"/><polygon class="cls-14" points="982.49 670.65 984.89 738.74 894.01 756 974.09 730.98 982.49 670.65"/><path class="cls-2" d="M982.53,658.09l6.07,16.3a16,16,0,0,0,13.89,10.36h0a16,16,0,0,0,15.77-22.19l-10.65-25Z" transform="translate(-48.24 -53.82)"/><path class="cls-18" d="M987.94,672.61s29.93-5.66,25.53-31.83S980.93,635,980.93,635l2.74,26.12Z" transform="translate(-48.24 -53.82)"/><path class="cls-2" d="M941.77,594.31a46.95,46.95,0,1,0,62.42-22.65A46.95,46.95,0,0,0,941.77,594.31Z" transform="translate(-48.24 -53.82)"/><g class="cls-19"><path class="cls-12" d="M1001.71,623.45s-7.39,37.61,20.25,38.43,12.6-70.55,12.6-70.55l-43.75-44-66.95,16.48,6.65,43.28s10.64,5.65,68.19-3.83Z" transform="translate(-48.24 -53.82)"/><polygon class="cls-12" points="926.15 540.2 948.14 572.37 967.1 551.42 926.15 540.2"/></g><path class="cls-2" d="M994.32,614.72a13.27,13.27,0,1,0,17.65-6.4A13.27,13.27,0,0,0,994.32,614.72Z" transform="translate(-48.24 -53.82)"/><path class="cls-1" d="M932.64,606.36s-10.15-37,13.84-59.91c19.79-18.89,52.14-17.67,69.7,3.3,8.25,9.85,14.88,24.68,15.49,47Z" transform="translate(-48.24 -53.82)"/><path class="cls-20" d="M937.73,605.74l-.28-23.1a10.87,10.87,0,0,1,10.36-11h0a10.88,10.88,0,0,1,11.34,9.78l2.31,23.05" transform="translate(-48.24 -53.82)"/><line class="cls-21" x1="983.43" y1="542.91" x2="875.69" y2="553.25"/><polygon class="cls-2" points="1964.34 1791.29 1988.49 1814.69 1960.96 1829.5 1937.38 1806.39 1964.34 1791.29"/><path class="cls-11" d="M1842.58,1670.33l16.14,71.42a113.6,113.6,0,0,0,18.38,40.64l106.24,95.44,42-34.23-90.72-96-33.23-126.67Z" transform="translate(-48.24 -53.82)"/><path class="cls-11" d="M2008.4,1882.64l-8.7,27.76-10,13.83a17.64,17.64,0,0,0,.41,21.14l2.26,2.89,67.78-63.16-27.1-25.36Z" transform="translate(-48.24 -53.82)"/><polyline class="cls-11" points="2012.64 1831.47 1944.32 1895.13 1938.85 1889.26 2007.17 1825.61 2012.64 1831.47"/><polygon class="cls-2" points="1732.05 1834.73 1722.98 1864.98 1691.87 1856.64 1700.97 1826.94 1732.05 1834.73"/><path class="cls-12" d="M1822,1590.66l-87.15,294.56,55,13.73,49.05-147.67,60.26-96.61a133.56,133.56,0,0,0,8.61-13.5,57,57,0,0,0,6.89-28.15l-.21-19.16Z" transform="translate(-48.24 -53.82)"/><path class="cls-11" d="M1741.91,1907.55l-27.49,10.15-17.15.59a17.77,17.77,0,0,0-16.6,13.35l-.92,3.57,92.1,15.15,3.53-37.22Z" transform="translate(-48.24 -53.82)"/><polyline class="cls-11" points="1723.88 1897.21 1631.05 1881.94 1632.36 1873.96 1725.19 1889.23 1723.88 1897.21"/><polygon points="1652.13 1237.65 1616.91 1292.6 1633.79 1304.71 1670.24 1246.58 1652.13 1237.65"/><path class="cls-6" d="M1654.63,1200.4s16.28,68.11,98.74,94.93a6.51,6.51,0,0,1,4.53,5.24c1,7.89,1.06,24.94-17.18,30a6.61,6.61,0,0,1-5.16-.83c-12.61-7.89-74.65-44.16-134.87-33.7Z" transform="translate(-48.24 -53.82)"/><path d="M1654.63,1200.4s-15.12,67.94-53.94,95.64C1600.69,1296,1606.17,1236.47,1654.63,1200.4Z" transform="translate(-48.24 -53.82)"/><path class="cls-2" d="M1653.67,1342.85c-2.55,12.5,7.74,27.76,20.24,30.31a23.11,23.11,0,0,0,27.27-18c2.55-12.5-7.74-27.76-20.24-30.32A23.11,23.11,0,0,0,1653.67,1342.85Z" transform="translate(-48.24 -53.82)"/><polyline class="cls-2" points="1671.61 1325.73 1647.19 1300.22 1631.24 1319.84 1671.61 1349.43"/><path class="cls-14" d="M1716,1356l-25.81,38.37,70.57,64.6a37.15,37.15,0,0,0,13.27,1.28l93.17-12.08a26.61,26.61,0,0,0,25.33-27.85h0c-.7-14.68,2.12-35.93-12.56-35.24l-108.26,22.24Z" transform="translate(-48.24 -53.82)"/><path class="cls-15" d="M1924.94,1444a53.54,53.54,0,0,0-24-51.58c-7.76-5-15.45-8.32-21-7.39-18.58,3.14-37.69,11.56-45.87,36.65-13.91,42.67-17.88,168.77-17.88,168.77l99.89,3.4Z" transform="translate(-48.24 -53.82)"/><polygon class="cls-14" points="1839.83 1393.36 1869.86 1503.72 1875.93 1410.1 1839.83 1393.36"/><path class="cls-2" d="M2010.49,1665c9.44-8.58,10.13-27,1.55-36.42a23.1,23.1,0,0,0-32.64-1.54c-9.44,8.58-10.14,27-1.55,36.41A23.1,23.1,0,0,0,2010.49,1665Z" transform="translate(-48.24 -53.82)"/><polyline class="cls-2" points="1916.93 1532.53 1935.14 1577.47 1959.6 1571.04 1944.47 1523.33"/><path class="cls-15" d="M1966.33,1621l50-11-33.92-116a37.1,37.1,0,0,0-6-11.91l-62.27-77.51c-8.41-12.06-22.6-9.9-34.65-1.49h0a26.61,26.61,0,0,0-6.6,37.06l60,72.11Z" transform="translate(-48.24 -53.82)"/><path class="cls-2" d="M1856.54,1369.87l1.9,17.49a16.14,16.14,0,0,0,11,13.61h0a16.15,16.15,0,0,0,21-17.82l-4.21-27.2Z" transform="translate(-48.24 -53.82)"/><path class="cls-18" d="M1858.23,1385.45s30.85-1,33.06-27.76-30.58-10.82-30.58-10.82l-3.81,26.28Z" transform="translate(-48.24 -53.82)"/><path class="cls-2" d="M1832.47,1297.19a47.49,47.49,0,1,0,66.83-6.65A47.49,47.49,0,0,0,1832.47,1297.19Z" transform="translate(-48.24 -53.82)"/><g class="cls-22"><path class="cls-6" d="M1884,1340.68s-16.61,35,10.28,42.72,29.93-66,29.93-66l-31.93-54.06-69.73-.52-4.27,44.09s9,8.19,67.81,13.23Z" transform="translate(-48.24 -53.82)"/><polygon class="cls-6" points="1816.28 1251.21 1829.83 1288.22 1853.63 1272.41 1816.28 1251.21"/></g><path class="cls-2" d="M1878.91,1330.29a13.42,13.42,0,1,0,18.89-1.88A13.42,13.42,0,0,0,1878.91,1330.29Z" transform="translate(-48.24 -53.82)"/><path class="cls-1" d="M1820.23,1310.8s-2.32-38.74,26.2-56.4c23.52-14.57,55.28-6.61,68.29,17.81,6.11,11.46,9.58,27.52,5.53,49.71Z" transform="translate(-48.24 -53.82)"/><path class="cls-23" d="M1825.41,1311.25l4.53-22.92a11,11,0,0,1,12.55-8.72h0a11,11,0,0,1,9.18,12l-2.52,23.3" transform="translate(-48.24 -53.82)"/><line class="cls-24" x1="1872.01" y1="1268.11" x2="1763.23" y2="1255.87"/><line class="cls-25" x1="2535.99" y1="1549.65" x2="2423.44" y2="1660.61"/><line class="cls-25" x1="2535.99" y1="1431.08" x2="2423.44" y2="1542.04"/><line class="cls-25" x1="2535.99" y1="1312.5" x2="2423.44" y2="1423.46"/><line class="cls-25" x1="2535.99" y1="1193.92" x2="2423.44" y2="1304.88"/><line class="cls-25" x1="2535.99" y1="1075.35" x2="2423.44" y2="1186.31"/><line class="cls-25" x1="2535.99" y1="956.77" x2="2423.44" y2="1067.73"/><line class="cls-25" x1="2535.99" y1="838.19" x2="2423.44" y2="949.16"/><line class="cls-25" x1="2535.99" y1="719.62" x2="2423.44" y2="830.58"/><line class="cls-25" x1="2535.99" y1="601.04" x2="2423.44" y2="712"/><line class="cls-25" x1="2535.99" y1="482.46" x2="2423.44" y2="593.43"/><line class="cls-25" x1="2535.99" y1="363.89" x2="2423.44" y2="474.85"/><line class="cls-25" x1="2423.44" y1="1542.04" x2="2535.99" y2="1542.04"/><line class="cls-25" x1="2423.44" y1="1423.46" x2="2535.99" y2="1423.46"/><line class="cls-25" x1="2423.44" y1="1304.88" x2="2535.99" y2="1304.88"/><line class="cls-25" x1="2423.44" y1="1186.31" x2="2535.99" y2="1186.31"/><line class="cls-25" x1="2423.44" y1="1067.73" x2="2535.99" y2="1067.73"/><line class="cls-25" x1="2423.44" y1="949.16" x2="2535.99" y2="949.16"/><line class="cls-25" x1="2423.44" y1="830.58" x2="2535.99" y2="830.58"/><line class="cls-25" x1="2423.44" y1="712" x2="2535.99" y2="712"/><line class="cls-25" x1="2423.44" y1="593.43" x2="2535.99" y2="593.43"/><line class="cls-25" x1="2423.44" y1="474.85" x2="2535.99" y2="474.85"/><line class="cls-25" x1="2423.44" y1="1692.75" x2="2423.44" y2="382.85"/><line class="cls-25" x1="2535.99" y1="1692.75" x2="2535.99" y2="382.85"/><rect class="cls-6" x="2365.41" y="1660.61" width="224.15" height="232.89"/><rect class="cls-6" x="2381.72" y="161.06" width="192.01" height="221.8" rx="4.3"/><path class="cls-7" d="M2399.21,214.54h100.51a3.26,3.26,0,0,1,3.26,3.26V315a3.26,3.26,0,0,1-3.26,3.26H2399.21a0,0,0,0,1,0,0V214.54A0,0,0,0,1,2399.21,214.54Z"/><line class="cls-26" x1="1680.84" y1="394.96" x2="1770.88" y2="656.52"/><line class="cls-26" x1="1618.21" y1="363.89" x2="1442.62" y2="601.04"/><rect class="cls-4" x="1434.85" y="570.71" width="417.7" height="417.7" rx="6.84" transform="translate(1974.67 2504.97) rotate(-127.41)"/><rect class="cls-27" x="1472.82" y="608.68" width="341.75" height="341.75" rx="5.59" transform="translate(1974.67 2504.97) rotate(-127.41)"/><path d="M1659.1,868.1c-4.7,35.23-58.16,28.1-53.46-7.13C1610.38,825.43,1663.83,832.56,1659.1,868.1Zm23-196.8-21,148.06-44.95-6c6.64-49.81,12.17-98.22,18.85-148.33Z" transform="translate(-48.24 -53.82)"/><circle class="cls-28" cx="1655.15" cy="341.73" r="75.27"/><path class="cls-4" d="M1756.61,395.55a53.23,53.23,0,1,1-53.22-53.23A53.22,53.22,0,0,1,1756.61,395.55Z" transform="translate(-48.24 -53.82)"/><line class="cls-25" x1="1950.32" y1="1.5" x2="1950.32" y2="161.06"/><line class="cls-25" x1="1807.24" y1="1.5" x2="1807.24" y2="161.06"/><line class="cls-25" x1="2092.94" y1="1.5" x2="2092.94" y2="161.06"/><line class="cls-25" x1="2251.4" y1="1.5" x2="2251.4" y2="161.06"/><line class="cls-25" x1="2399.21" y1="1.5" x2="2399.21" y2="161.06"/><line class="cls-25" x1="2552.47" y1="1.5" x2="2552.47" y2="161.06"/><line class="cls-25" x1="2703" y1="1.5" x2="2703" y2="161.06"/><line class="cls-25" x1="1799.79" y1="161.06" x2="1950.32" y2="1.5"/><line class="cls-25" x1="1950.32" y1="161.06" x2="2100.86" y2="1.5"/><line class="cls-25" x1="2100.86" y1="161.06" x2="2251.4" y2="1.5"/><line class="cls-25" x1="2251.4" y1="161.06" x2="2401.93" y2="1.5"/><line class="cls-25" x1="2401.93" y1="161.06" x2="2552.47" y2="1.5"/><line class="cls-25" x1="2552.47" y1="161.06" x2="2703" y2="1.5"/><polygon class="cls-29" points="1655.15 161.06 2882.5 161.06 2717.24 1.5 1782.12 1.5 1655.15 161.06"/><line class="cls-30" x1="1655.15" y1="161.06" x2="1655.15" y2="341.73"/><path class="cls-1" d="M1054.5,1925.76l85.92-222a12.42,12.42,0,0,1,23.17,0l85.91,222Z" transform="translate(-48.24 -53.82)"/><g class="cls-31"><rect class="cls-32" x="1026.17" y="1697.64" width="152.54" height="47.13"/><rect class="cls-32" x="1017.83" y="1786.71" width="172.53" height="47.13"/></g><rect class="cls-33" x="990.56" y="1871.95" width="227.38" height="18.71"/><path class="cls-1" d="M2302,1926.45l85.91-222a12.42,12.42,0,0,1,23.17,0l85.92,222Z" transform="translate(-48.24 -53.82)"/><g class="cls-34"><rect class="cls-32" x="2273.7" y="1698.33" width="152.54" height="47.13"/><rect class="cls-32" x="2265.37" y="1787.39" width="172.53" height="47.13"/></g><rect class="cls-33" x="2238.1" y="1872.63" width="227.38" height="18.71"/><circle class="cls-4" cx="587.87" cy="1554.64" r="178.42" transform="translate(-1084.64 1853.27) rotate(-81.53)"/><line class="cls-35" x1="539.63" y1="1437.22" x2="539.63" y2="1890.66"/><line class="cls-35" x1="470.25" y1="1446.46" x2="539.63" y2="1524.27"/><path class="cls-35" d="M649.41,1573.8c-5,5-61.54,63.88-61.54,63.88" transform="translate(-48.24 -53.82)"/><line class="cls-36" x1="2.61" y1="1895.02" x2="2995.33" y2="1895.02"/></svg>