<svg id="_Layer_" data-name="&lt;Layer&gt;" xmlns="http://www.w3.org/2000/svg" viewBox="0 0 3200 2000"><defs><style>.cls-1,.cls-2,.cls-4{fill:#ffc727;}.cls-1{opacity:0.3;}.cls-3,.cls-4{opacity:0.5;}.cls-5{fill:#ffb027;}.cls-6{fill:#12123c;}.cls-7{fill:#252525;}.cls-8{fill:#fc9290;}.cls-9{fill:#ea8989;}.cls-10{fill:#fff;}.cls-11{fill:#ac4949;}.cls-12{fill:#fdadac;}.cls-13{fill:#15152a;}.cls-14{fill:#f0807d;}.cls-15{fill:#ed6966;}.cls-16{fill:#060632;}.cls-17{fill:#a13934;}.cls-18{fill:#eb9090;}.cls-19{fill:#15115b;}.cls-20{fill:#e75755;}.cls-21{fill:#ee9c9c;}.cls-22{fill:#ea8888;}.cls-23{fill:#a83f3f;}.cls-24{fill:#0d0d38;}</style></defs><title>Монтажная область 60</title><path class="cls-1" d="M282.88,1797S-67,1421.38,223.71,1014.71C481.63,653.88,782.33,678.55,1003,825c94,62.37,364.88,7.69,595.46-359.47,314.45-500.7,1404.45-197,1205.71,573.32-96.18,372.78,292.7,386.34,94.55,759Z"/><path class="cls-2" d="M2061.35,1619.43s28.23-32.94,1.74-53.86c0,0-19.35-11.71-35.13-10.76,0,0,22.36,37.49,15.13,41.22s-21.9-43.57-21.9-43.57-44-4.27-58.2,2.54c0,0,37.64,30.8,29.71,32.64s-48.58-28.41-48.58-28.41-41,7-38.8,32,16.31,32.72,22.52,32,42.51-14.52,43.3-9.44-21.06,21.71-36.37,22.49c0,0,28.9,31.86,48.1,22.66s20.84-23.77,32.81-29.24,22.19-5.45,17.24.13-26.6,11-33.45,23.1-13,20.27,6.88,17.28,52.16-17.52,53.58-34.17Z"/><path class="cls-2" d="M1925.46,1591.88s111.31-4.29,135.89,27.55c0,0,5.44,16.28,22.16,31.1l2.61,7.11s-19.29-20.34-26.19-21.57C2059.93,1636.07,2070.72,1596.64,1925.46,1591.88Z"/><path class="cls-2" d="M2083.51,1650.53s23.89,17.67,25.55,49.24l-4.33.39s-7.63-32.64-21.42-45.41S2083.51,1650.53,2083.51,1650.53Z"/><path class="cls-2" d="M2160.05,1578s-44.91-25.15-24-59.28c0,0,16.76-21,34.73-26.34,0,0-9.58,50.89,0,52.09s6.58-57.49,6.58-57.49,47.31-22.75,65.87-21c0,0-29.34,49.7-19.76,48.5s42.51-51.49,42.51-51.49,48.5-9,56.28,19.76-4.79,43.1-12,44.9-53.29,1.2-52.09,7.19,32.33,15.56,49.69,10.17c0,0-19.16,47.31-44.31,44.91s-32.93-18-48.49-19.16-26.95,3-19.16,7.19,34.13,1.37,46.7,12.06,22.75,17.28-.6,22.07-65.26,1.79-73.65-16.17Z"/><path class="cls-2" d="M2300.16,1491.79s-125.74,40.71-140.11,86.22c0,0,.6,20.36-12,43.71v9s13.17-30.54,20.35-34.73C2168.43,1596,2140.29,1556.45,2300.16,1491.79Z"/><path class="cls-2" d="M2148.08,1621.72s-19.4,29.44-8.34,65.29l5-1.34s-4.84-39.48,5.3-59.34S2148.08,1621.72,2148.08,1621.72Z"/><g class="cls-3"><path class="cls-2" d="M2088.61,1543.32s59.19-33.14,31.57-78.13c0,0-22.1-27.63-45.78-34.73,0,0,12.63,67.09,0,68.67s-8.68-75.78-8.68-75.78-62.35-30-86.82-27.62c0,0,38.67,65.51,26,63.93s-56-67.88-56-67.88-63.93-11.83-74.2,26,6.32,56.83,15.79,59.2,70.25,1.57,68.67,9.47-42.62,20.52-65.51,13.42c0,0,25.25,62.35,58.4,59.19s43.41-23.68,63.93-25.26,35.52,4,25.26,9.47-45,1.82-61.56,15.91-30,22.77.79,29.08,86,2.37,97.08-21.31Z"/><path class="cls-2" d="M1903.92,1429.67s165.75,53.67,184.69,113.65c0,0-.79,26.84,15.78,57.62v11.84s-17.36-40.25-26.83-45.78C2077.56,1567,2114.65,1514.91,1903.92,1429.67Z"/><path class="cls-2" d="M2104.39,1600.94s25.56,38.82,11,86.07l-6.58-1.77s6.39-52-7-78.22S2104.39,1600.94,2104.39,1600.94Z"/></g><path class="cls-4" d="M2091.78,1789.47a116,116,0,0,0,115.95-116H1975.82A116,116,0,0,0,2091.78,1789.47Z"/><path class="cls-5" d="M2120.31,1788.58A116,116,0,0,1,1990,1673.51h28.8A116,116,0,0,0,2120.31,1788.58Z"/><path class="cls-5" d="M2209.33,1795.37H1974.22a14.31,14.31,0,0,1,14.31-14.31H2195a14.31,14.31,0,0,1,14.3,14.31Z"/><rect class="cls-5" x="1972.01" y="1673.51" width="238.36" height="3.56"/><path class="cls-6" d="M505.08,662.78c-.33-1.81-4.58-21.19-34.57-17.88,0,0,14.92-.38,18.4,5.7,0,0-11.15-6.52-18.92-2.78s-10.47,18.7-9.84,23.39,7.35,19.16,12.7,19.69a15.85,15.85,0,0,0,6.25-.9,73.39,73.39,0,0,0-3,7.74c-8.35,26.17,7.39,48.27,17.09,44.17,6.22-2.63,9.65,8.14,9.65,8.14l55.43-60S528.3,645.7,505.08,662.78Z"/><path class="cls-7" d="M577.29,1385l-13.49,5S505.25,1308.8,498,1237.34c-1.29-12.75-.86-25.11,1.93-36.52l-1.58-9c-.46-2.7-1-5.94-1.68-9.66-1.9-10.91-4.52-25.83-7.52-42.83-6.89-39.1-15.81-89.09-22.75-125.84l3.64-1.17,39.3-12.68,8.12-25.79,29.27-7.71s6.53,12.79,12.38,73.2c1.08,7.93,2.05,16.67,2.79,26.14a516.93,516.93,0,0,1-2.78,105.82q-2,15.75-5.14,32.48c-1.54,8.17-1.77,19.3-1.12,32.08C555.85,1294.21,577.29,1385,577.29,1385Z"/><path d="M561.94,1065.43l-63.55,126.34c-.46-2.7-1-5.94-1.68-9.66-1.9-10.91-4.52-25.83-7.52-42.83-6.89-39.1-15.81-89.09-22.75-125.84l3.64-1.17,39.3-12.68,8.12-25.79,29.27-7.71s6.53,12.79,12.38,73.2C560.23,1047.22,561.2,1056,561.94,1065.43Z"/><path class="cls-7" d="M534,982.3l-1.48-12.61C507.87,976.24,442,951.4,442,951.4s-23.88,21-20.74,71.29c1.52,24.56,4.32,128.91,7.24,159.78,1.05,11.19,2,19.16,2.35,22.34a0,0,0,0,1,0,0,4.37,4.37,0,0,1-.71,2.73,145.21,145.21,0,0,0-10.78,22.66c-28.65,76.35,4.42,170.38,4.42,170.38l8.58-3.46s18.81-104.64,34.1-150.87c2.6-7.84,5.08-14,7.36-17.68,6.65-10.73,12.82-28.26,18.42-49.11,10.58-39.42,19.1-90.7,24.77-130.28C517.82,1049.25,534,982.3,534,982.3Z"/><path class="cls-8" d="M542,878.71a17.86,17.86,0,0,0,.68,2c9.63,27.14,26.78,55.63,38.48,66,7.68,6.87,28.78,14,46.73,19.1,11.92,3.49,22.55,6,26.91,7.13,1.39.35,2.2.49,2.2.49l4-11.81s-9.32-5.83-20.69-13.48c-15.79-10.73-35.53-24.85-39.31-30.92C592.26,903.11,586.46,860,579,830.84c-.37-1.57-.76-3.09-1.14-4.59q-.43-1.65-.87-3.24a2.59,2.59,0,0,0-.27-.78c-.41-1.21-.72-2.3-1.06-3.3a.69.69,0,0,0-.15-.34A89.58,89.58,0,0,0,570.39,807c-2.19-3.39-4.58-5.07-7.17-4.5a32.54,32.54,0,0,0-8,4.18c-.95.65-1.95,1.39-3,2.23a7.34,7.34,0,0,0-1.71,1.46,42.67,42.67,0,0,0-10.11,13.52A52.93,52.93,0,0,0,535.72,840C534.26,850.46,537.05,864.33,542,878.71Z"/><path class="cls-8" d="M555.38,829.19a76.65,76.65,0,0,1-27.13,10.66c-41.6,8.38-56.46-27-61.73-51.14a35.51,35.51,0,0,1,14.12-3.91c3-.27,6.15-.41,8.76-.47,4.74-3.42,12.06-17.78,14.23-40.32l1.93.57,32.32,9.84s-1.78,10.31-2.79,20.08c-.78,7.64-1.08,15,.32,16.79,2.53.62,4,1,4,1l0,0A208.78,208.78,0,0,1,555.38,829.19Z"/><path class="cls-9" d="M537.88,754.42s-1.79,10.31-2.79,20.08c-18.4-2.37-26.47-20.18-29.53-29.91Z"/><path class="cls-8" d="M543.12,764.3s-43.74-3.65-41-30.85-1.14-46,26.9-44.81S561.4,700.73,562.71,710,554.56,764.55,543.12,764.3Z"/><path class="cls-2" d="M577.81,826.25q-.43-1.65-.87-3.24a2.59,2.59,0,0,0-.27-.78c-.41-1.21-.72-2.3-1.06-3.3a.69.69,0,0,0-.15-.34A89.58,89.58,0,0,0,570.39,807c-1.58-2.46-3.18-4.62-4.93-5.41-1.37-.87-9-5.29-26-9.28l0,0c.44,1,12.08,27.55,10.15,33.85S491.25,821,487.68,817c-2.86-3.21-5.65-22-6.64-29.29-.26-1.82-.4-2.93-.4-2.93s-20.4.19-31,6.38a87.24,87.24,0,0,1,9,19.41c.29,1,.57,2,.82,3a41.69,41.69,0,0,1,1.09,6.36c.24,2.79-.84,5.45-2.76,8.18a60.61,60.61,0,0,1-7.09,7.85c-1.87,1.81-3.87,3.71-5.93,5.76h0c1.62,12.56,5.5,33,6.37,55.36a38.15,38.15,0,0,1-6.28,22.33c-9.9,15-27,44.43-20,60.21,2.59,15.46,136.37,16.85,131.1.23,0,0,5.9-97.61,13.2-122,.26-.89.49-1.76.68-2.65,2-9.28.27-18.25-2-26.23A45.79,45.79,0,0,1,577.81,826.25Z"/><path class="cls-6" d="M562.93,694.78c-5.93-8.86-11.21-7.57-14.32-5.4-22.55-15.51-39.87,2.35-39.87,2.35a52.19,52.19,0,0,1-20.07,29s7.47,5.72,26.29,2.83c5.75-.88,11.15-4.36,15.89-8.76a102.2,102.2,0,0,1-19.68,19.65c22.93-7.93,34.78-37.53,36-40.67,2.43,2.66,7.16,8.39,8.26,13.65,1.48,7.14,1,21.5,5.23,21.43C560.64,728.85,571.82,708.06,562.93,694.78Z"/><path class="cls-5" d="M516.13,953.12c-25.84,3.47-51.58-20.15-68-39.62a37.69,37.69,0,0,0,3.09-16.42c-.87-22.33-4.75-42.8-6.37-55.36h0c2.06-2.05,4.06-4,5.93-5.76a60.61,60.61,0,0,0,7.09-7.85C484.14,860.75,551.17,948.41,516.13,953.12Z"/><path class="cls-8" d="M697.69,978.88c-5.8,1.68-14.54,8.88-26.4,2.49a195.73,195.73,0,0,0-22.06-9.71c-1.77-.56-2.78-.94-2.78-.94L653.07,957a3,3,0,0,0,.58.24c3.12,1.07,19,6.44,26.76,5.61,8.78-1,21.91,11,21.91,11S703.49,977.28,697.69,978.88Z"/><path d="M473.69,1407.62h-67.9s-1.63-10.35,1.92-18.2c3.4-7.53,8.72-11,7.45-20.07,4.31,4.44,11.34,9.42,21.16,8.1,1.2,1.94,7.76,12.38,11.78,15.27C452.54,1395.91,472.32,1394.77,473.69,1407.62Z"/><path d="M619.47,1407.62H551.58s-2.54-10.83,1.91-18.2c4-6.52,2.44-10.24-.48-15.63a26.33,26.33,0,0,0,11.43,2.16c3.39-.2,7-1.73,10.1-3.56,2.92,3.34,15.44,17.52,19.34,20.33C598.32,1395.91,618.11,1394.77,619.47,1407.62Z"/><path class="cls-10" d="M532.69,748.57s.61,3.6,9.47,3.61c0,0,7.44,0,7.46-3.91C549.62,748.27,542.61,745,532.69,748.57Z"/><path class="cls-8" d="M605.73,962s5.82-.21,10-2.46,18,1.36,16.64,3.19-9-.42-9.76.62-3.53,2.35-3.53,2.35Z"/><path class="cls-4" d="M935.94,765.1H706.62a89.51,89.51,0,0,0-89.51,89.5v229.32a89.51,89.51,0,0,0,89.51,89.51H935.94a89.51,89.51,0,0,0,89.51-89.51V854.6A89.51,89.51,0,0,0,935.94,765.1ZM972.56,1065a51.75,51.75,0,0,1-44.79,51.34,52.39,52.39,0,0,1-7,.47H721.36A51.77,51.77,0,0,1,669.55,1065V865.6a51.81,51.81,0,0,1,51.81-51.81H920.75a51.81,51.81,0,0,1,51.81,51.81Z"/><path class="cls-8" d="M795,951.24s-1,31.21-5,45.19l-31.62,22.06,119,17.81L849,997.08s-8.57-41.85-4.07-57.33S795,951.24,795,951.24Z"/><path class="cls-9" d="M794.84,955.55S804.25,978.2,822,977.7s21.77-20.54,21.77-20.54Z"/><path class="cls-11" d="M784.26,937.2s-5.73-28.58-9.72-37.24-7.32-47.27,37-49.27c0,0,17,2,26.3-3.66,0,0,0,5.66-2.33,7.65a29.44,29.44,0,0,1,27.3,9.66c12,13.32-8,59.93-7,70.91Z"/><path class="cls-8" d="M820,969c-12.84-.23-36.49-17.33-36.49-38.52v-33c0-7.74,5.4-14.06,12-14.06h49c6.59,0,12,6.32,12,14.06v31.18C856.44,950.77,834.68,969.21,820,969Z"/><path class="cls-11" d="M783.46,915s.07-19.86,15.8-22.92,50.94,9.68,55.93-4.8-68.05-14.23-71.73-5S783.46,915,783.46,915Z"/><path class="cls-7" d="M894.61,1005.88l-.05,0a21.47,21.47,0,0,0-5.06-1.37v0a314.43,314.43,0,0,0-36.61-7c-1.3-.17-2.59-.32-3.86-.47-7.8,10.37-14.06,15.11-20.62,18.4-1.46.73-2.93,1.4-4.44,2-1.3.55-2.64,1.09-4,1.63a24.68,24.68,0,0,1-5.06-1.27c-.95-.34-1.88-.73-2.8-1.16-12.58-5.94-22.09-19.91-22.09-20.29-1.76.18-3.48.38-5.13.59a173.35,173.35,0,0,0-29.35,6h0c-.91.11-33.33,4.57-82.92,79.52a51.82,51.82,0,0,0,48.77,34.29H920.75a51.75,51.75,0,0,0,49-34.9C932.17,1024.91,905.3,1009.83,894.61,1005.88Z"/><path class="cls-2" d="M791.67,988.82a12.63,12.63,0,0,0-6.78,8.2s21.19,21.8,35.07,22.13Z"/><path class="cls-2" d="M820,1019.15l27.36-31.43s5.65,3.72,5.57,9.84C852.89,997.56,831.72,1020,820,1019.15Z"/><path class="cls-2" d="M832.2,1116.81H804.85c3.23-36.71,7.16-73,9-90l.88-7.8c0-.29.06-.54.09-.77s0-.24,0-.35c.08-.68.12-1,.12-1l2.74-.05,4.31-.07h0l1.83,0s0,.28.06.83c0,.29.06.67.11,1.14s.06.76.09,1.2c.17,2,.42,4.92.72,8.57C826.38,1046.17,829.33,1081.49,832.2,1116.81Z"/><path class="cls-5" d="M809.56,1008s12.62-1.26,20.3-.48a2.12,2.12,0,0,1,1.63,3.16c-2.15,3.88-6.54,10.6-11.14,10.6C813.89,1021.28,803.83,1008.45,809.56,1008Z"/><path class="cls-5" d="M645.64,976.62c-3.58,4.86-13.06,12.28-25.28,6.61a193,193,0,0,0-22.61-8.36c-1.8-.46-2.83-.78-2.83-.78L600.7,960a2.58,2.58,0,0,0,.6.21c3.17.88,18.87.94,27.5,5.55C638.78,971.07,649.86,970.9,645.64,976.62Z"/><path class="cls-5" d="M606.29,962l-2.42,13.32s-4.54-.42-11.78-1.13c-2.17-.22-3.41-.42-3.41-.42-5.79-.62-12.73-1.55-20.29-2.54h-.1c-13-2-27.52-4.37-39.87-7.4-8.69-2.2-16.28-4.72-21.53-7.44a10.91,10.91,0,0,1-1.51-.9c-12.64-7.6-29-31.78-42.32-58.07-1.85-3.63-3.6-7.27-5.34-10.8A278.81,278.81,0,0,1,442.78,849a108.42,108.42,0,0,1-4.34-18.16,45.11,45.11,0,0,1-.55-5.17c-.08-.94-.14-1.86-.18-2.75,5.11-4.47,16.9-12.83,33-12,.34.57.67,1.15,1,1.74,6.93,12.61,14.5,29.05,21.66,45.43,4,9,7.8,18,11.59,26.23,2.18,5,4.34,9.76,6.35,14.1,3.89,8.26,7.33,14.92,10.26,19.07,1.87,2.71,6.89,6.27,13.48,10.2,11.45,6.89,28,15,42.41,21.51,6,2.76,11.62,5.24,16.31,7.29C601.3,959.85,606.29,962,606.29,962Z"/><path class="cls-5" d="M471.65,812.73c-20-3.7-33.8,12.89-33.8,12.89-2.31-29.45,12-34.75,12-34.75C455.52,787.92,463.23,797.53,471.65,812.73Z"/><rect class="cls-2" x="2386.07" y="1190.43" width="321.36" height="59.79" rx="7.81"/><path class="cls-12" d="M2464,1250.22l-3.82,35-55.26,506.43a3.15,3.15,0,0,1-2.89,3.11c-2.83,0-5-2.94-4.74-6.32l43.82-518.61,1.66-19.59Z"/><path class="cls-13" d="M2464,1250.22l-3.82,35c-2.62-13.93-19.07-15.39-19.07-15.39l1.66-19.59Z"/><path class="cls-12" d="M2691.52,1794.74a3.16,3.16,0,0,1-2.89-3.11l-55.26-506.43-2.38-21.82-1.43-13.16h21.22l1.66,19.59,1.3,15.37,42.53,503.24C2696.57,1791.8,2694.36,1794.74,2691.52,1794.74Z"/><path class="cls-13" d="M2653.74,1285.18c-5.4-16.67-22.74-21.79-22.74-21.79h0l-1.43-13.16h21.22l1.66,19.59Z"/><path class="cls-2" d="M636.64,1445.92c-6-.5-299.26.95-305.41-.48-16.84-14.13-2.75-42.72,4.39-37.82H497.08c79.59,1.24,135.57-2.66,145.14,1.83C650.54,1417.16,648.12,1446.8,636.64,1445.92Z"/><path class="cls-12" d="M402.63,1445.92c-3.69,21.6-4.45,26.1-4.79,28.1-10.69,46.64-49.47,320.69-57.18,320.72-7.33-1.21-3.81-7.32-4-9.7,4.74-36,30.73-233,39.9-302.44,3.17-24,1.83-13.94,4.84-36.68Z"/><path class="cls-13" d="M402.63,1445.92l-3.82,22.41c-2.62-8.93-19.07-9.86-19.07-9.86l1.66-12.55Z"/><path class="cls-12" d="M630.2,1794.74c-6.93.37-34.67-201.63-51.9-289.69-6.3-37-3.87-22.73-9.56-56.16l-.51-3h21.23C591,1485.28,644.58,1804.56,630.2,1794.74Z"/><path class="cls-13" d="M592.41,1468.32c-5.4-10.68-22.74-14-22.74-14h0l-1.44-8.43h21.23C590.19,1451.48,591.63,1462.35,592.41,1468.32Z"/><path class="cls-4" d="M1085.32,266.25H853.59a90.45,90.45,0,0,0-90.45,90.44V588.43a90.45,90.45,0,0,0,90.45,90.44h231.73a90.45,90.45,0,0,0,90.45-90.44V356.69A90.45,90.45,0,0,0,1085.32,266.25Zm37,303a52.29,52.29,0,0,1-33.48,48.84c-.6.24-1.19.46-1.79.66a52.34,52.34,0,0,1-17.09,2.86H868.48a51.55,51.55,0,0,1-7.81-.59,52.32,52.32,0,0,1-44.54-51.77V367.81a52.35,52.35,0,0,1,52.35-52.35H1070a52.35,52.35,0,0,1,52.36,52.35Z"/><path class="cls-8" d="M952.09,443.34s-.88,27.43-4.39,39.71l-27.79,19.39,104.59,15.65-24.94-34.46S992,446.85,996,433.24,952.09,443.34,952.09,443.34Z"/><path class="cls-9" d="M951.94,447.13s8.27,19.91,23.85,19.47,19.13-18.06,19.13-18.06Z"/><path class="cls-6" d="M942.64,431s-5-25.11-8.54-32.72-6.44-41.54,32.48-43.3c0,0,14.92,1.76,23.11-3.22,0,0,0,5-2.05,6.73a25.85,25.85,0,0,1,24,8.49c10.54,11.7-7,52.66-6.14,62.31Z"/><path class="cls-8" d="M1006.07,396v27.4a32.31,32.31,0,0,1-2.83,13h0a41.64,41.64,0,0,1-14,16.94c-5.08,3.56-10.54,5.61-15.19,5.53-4.06-.09-9.33-2.07-14.44-5.45-6.88-4.56-13.43-11.64-16.22-20l0-.12-.1-.35a26.24,26.24,0,0,1-1.27-7.95V396c0-6.8,4.74-12.36,10.53-12.36h43.07C1001.33,383.65,1006.07,389.21,1006.07,396Z"/><path class="cls-2" d="M1035.12,490.19s-24.56-5.28-35.56-6.56C989.85,496.52,982.88,500,974,503.5c-14.28-2-26.31-20-26.31-20.45a148.23,148.23,0,0,0-30.3,6.25h0c-1,.13-39,5.42-94.62,106a52.33,52.33,0,0,0,37.91,26.25c7.16-6.18,22.54-19.54,34.61-30-.14,3.38-.17,6.44-.09,9.11.21,7.2.44,14.35.6,21.5h151.65c-.3-3.63-.53-7.13-.7-10.48-.52-10.42-1-19.94-1.45-28.63,0-.07,0-.15,0-.23s0-.18,0-.27l0,0,7.66,6.65,1.74,1.5,1.53,1.34c.71.61,1.43,1.23,2.15,1.87l3.94,3.42,1.83,1.59,1,.84,1.11,1,.84.72,1.94,1.68,1.58,1.38,1.32,1.14,4.67,4.06,1.8,1.55c.61.54,1.23,1.07,1.83,1.58.42.38.83.74,1.25,1.09l.55.48c.63.55,1.24,1.09,1.84,1.59l1.78,1.55.7.61c.24.22.49.43.73.63.6-.2,1.19-.42,1.79-.66a52.44,52.44,0,0,0,31.8-35.64C1068.59,492.88,1035.12,490.19,1035.12,490.19Z"/><path class="cls-6" d="M941.94,411.52s.06-17.45,13.88-20.14,44.77,8.51,49.16-4.22-59.81-12.5-63-4.39S941.94,411.52,941.94,411.52Z"/><path class="cls-5" d="M913.76,621.66h-18c-.16-7.16-.39-14.3-.6-21.5-.08-2.67-.05-5.73.09-9.11,0-.76.05-1.53.09-2.32.17.29.48.77.9,1.45C899,594.56,906.28,606.77,913.76,621.66Z"/><path class="cls-6" d="M989.2,441.3v12.08c-5.08,3.56-10.54,5.61-15.19,5.53-4.06-.09-9.33-2.07-14.44-5.45V441.3A12.3,12.3,0,0,1,971.83,429h5.11A12.3,12.3,0,0,1,989.2,441.3Z"/><path class="cls-5" d="M1088.85,618.14c-.6.24-1.19.46-1.79.66-.24-.2-.49-.41-.73-.63l-.7-.61-1.78-1.55c-.6-.5-1.21-1-1.84-1.59l-.55-.48c-.42-.35-.83-.71-1.25-1.09-.6-.51-1.22-1-1.83-1.58l-1.8-1.55-4.67-4.06-1.32-1.14-1.58-1.38-1.94-1.68-.84-.72-1.11-1-1-.84-1.83-1.59-3.94-3.42c-.72-.64-1.44-1.26-2.15-1.87l-1.53-1.34-1.74-1.5-7.66-6.65-.15-.13.13-.1c1.44-1,14.55-9.67,22.83,5C1073.94,597.58,1083.25,610.58,1088.85,618.14Z"/><path class="cls-6" d="M1003.23,436.44c-5.79,13.2-19.31,22.64-29.22,22.47-9.53-.18-25.81-10.91-30.66-25.43l0-.12-.1-.35s10.22,8.73,17,4.4h28.42S996.06,441.67,1003.23,436.44Z"/><path class="cls-8" d="M977.45,439.82h-6.13c-1.41,0-3.2-2.3-3.2-3.7a6.74,6.74,0,0,1,3.2-1.41h6.13c1.4,0,3.46,1.17,3.79,2C981.24,436.71,980.39,439.82,977.45,439.82Z"/><path class="cls-4" d="M1579,257.83H1347.25a90.44,90.44,0,0,0-90.45,90.44V580a90.44,90.44,0,0,0,90.45,90.44H1579A90.45,90.45,0,0,0,1669.43,580V348.27A90.45,90.45,0,0,0,1579,257.83Zm37,303.05a52.36,52.36,0,0,1-52.36,52.35H1362.14a52.36,52.36,0,0,1-52.36-52.35V359.4A52.37,52.37,0,0,1,1362.14,307h201.49A52.37,52.37,0,0,1,1616,359.4Z"/><path class="cls-6" d="M1441.49,494.52s-32.87-1.65-33.79-20.62-28.08-32.8-20.21-48c9.64-18.68.85-36.63,13-49.19,13.41-13.83,30.36-6.32,39.3-14.38s25.29-15.49,41.42-5.53,28.43,4.59,39,14.19c11.71,10.59,7.27,23.93,16.93,31.17,8.85,6.64,5.24,24.78-2.22,39.52-5.37,10.63,7,20.58-14.25,32.79-8.85,5.09-6.93,17.87-33.8,20.08C1474.82,495.51,1448.55,489.84,1441.49,494.52Z"/><path class="cls-14" d="M1442.48,477.7s-1,29.63-4.76,42.91l-30,20.95,113,16.91-27-37.24s-8.14-39.74-3.87-54.44S1442.48,477.7,1442.48,477.7Z"/><path class="cls-15" d="M1442.31,481.79s8.94,21.51,25.77,21,20.67-19.51,20.67-19.51Z"/><path class="cls-14" d="M1466.15,494.52c-12.19-.22-34.65-16.46-34.65-36.58V426.55c0-7.34,5.12-13.35,11.39-13.35h46.53c6.26,0,11.38,6,11.38,13.35v29.62C1500.8,477.26,1480.14,494.76,1466.15,494.52Z"/><path class="cls-2" d="M1532.21,528.79h0a305,305,0,0,0-38.42-7.55c-10.5,13.93-18,17.64-27.62,21.43-15.42-2.13-28.43-21.61-28.43-22a159.54,159.54,0,0,0-32.74,6.71h0c-1.35.17-31.4,4.83-77.31,73.39a52.12,52.12,0,0,0,34.52,13H1542.4c0-.16,0-.32,0-.48h21.25a52.26,52.26,0,0,0,40-18.55C1571.35,539.3,1532.21,528.79,1532.21,528.79Z"/><path class="cls-6" d="M1431.5,439.28s8.47-25.84,36.21-21.81,30.15,10,33.09,16.83,8.65-25.13,8.65-25.13l-32.73-9.72s-39.6,4.5-42.44,11.14l-2.85,6.64Z"/><path class="cls-6" d="M1497.82,442.7a9,9,0,0,0-7-3h-14.72c-2.8,0-4.75.79-5.82,2.39a5.25,5.25,0,0,0-.82,2.43h0a13.67,13.67,0,0,0-6.55.11h0a5.25,5.25,0,0,0-.84-2.54c-1-1.6-3-2.39-5.81-2.39h-14.73a8.89,8.89,0,0,0-7,3,7.48,7.48,0,0,0-1.37,6.47c1.67,8.33,11.25,9.39,16,9.39,1.48,0,2.5-.1,2.69-.12,4.48,0,7.63-2.57,9.92-8.05a14.1,14.1,0,0,0,1.12-4.51h0a12.66,12.66,0,0,1,6.49-.14h0a14.28,14.28,0,0,0,1.12,4.65c2.29,5.48,5.45,8,9.93,8.05.19,0,1.21.12,2.69.12,4.78,0,14.37-1.06,16-9.38A7.59,7.59,0,0,0,1497.82,442.7Zm-35.9,3.48a14.32,14.32,0,0,1-1,3.85c-2.12,5.07-5,7.44-9.05,7.44h-.07a28.29,28.29,0,0,1-8.17-.38c-5.46-1.11-8.66-3.83-9.53-8.11a6.59,6.59,0,0,1,1.18-5.66,7.94,7.94,0,0,1,6.25-2.63h14.73c2.46,0,4.14.66,5,2a4.62,4.62,0,0,1,.69,2.29h0a11,11,0,0,0-1.29.47.58.58,0,0,0,.24,1.11.69.69,0,0,0,.24,0,6.33,6.33,0,0,1,.79-.3Zm36.32,2.8c-.86,4.28-4.07,7-9.54,8.11a28.3,28.3,0,0,1-8.17.38h0c-4.06,0-6.94-2.37-9.06-7.44a13.94,13.94,0,0,1-1-3.95h0l.84.39a.58.58,0,0,0,.54-1,10.22,10.22,0,0,0-1.38-.59v0a4.37,4.37,0,0,1,.68-2.18c.86-1.3,2.55-2,5-2h14.72a8,8,0,0,1,6.27,2.63A6.59,6.59,0,0,1,1498.24,449Z"/><path class="cls-4" d="M2204.8,250.93l-269.73-31.1a70.55,70.55,0,0,0-78.17,62l-31.11,269.72a70.57,70.57,0,0,0,62,78.18l269.73,31.1a70.54,70.54,0,0,0,78.17-62l31.11-269.73A70.57,70.57,0,0,0,2204.8,250.93Zm5.37,102.87L2187.08,554a52.12,52.12,0,0,1-7.35,21.33h0a52.5,52.5,0,0,1-25.59,21.42,51.81,51.81,0,0,1-19.44,3.59h0a50.89,50.89,0,0,1-5.62-.34l-84.86-9.79-16.78-1.93-54.83-6.33-7-.81-36.65-4.23a52.3,52.3,0,0,1-42.55-32.41c-.46-1.12-.88-2.24-1.25-3.39a52.24,52.24,0,0,1-2.21-22.21L1906,318.71a52.34,52.34,0,0,1,58-46l200.16,23.08A52.36,52.36,0,0,1,2210.17,353.8Z"/><path class="cls-16" d="M2125.39,400a3.55,3.55,0,0,0-.08-.47c-.64-3.66-1.37-7.29-2.17-10.86h0c4.45-28.61-6.53-40.85-16-47h0c-5.1-10-10.56-17-15.74-19.4-9.43-4.36-20.27-4-27.78-2.93,1.77-2.17,5.53-3.22,5.53-3.22-4.74-.3-14.79,5.22-14.79,5.22-67.23-19.6-69.38,77.13-66.14,99.29s-19.38,31.39-51.78,51.8c-29.44,18.54-45.29,38.53-53.82,54.38a51.93,51.93,0,0,0,2.53,14.34,10,10,0,0,1,3.19-2.06c-.07.19-.87,2.37-1.94,5.45a52.3,52.3,0,0,0,42.55,32.41l36.65,4.23,7,.81,54.83,6.33c5.76-8.16,12-16.62,18.55-25,15.86-20.45,33.2-40.51,48.29-55.11,5-4.82,9.7-9,14.05-12.49l.49-.38a63.35,63.35,0,0,0,5.18-12.6c4.64-15.17,5.51-32.06,5.59-33.73,0,15.67-1.38,26.53-3.17,34.06a59.08,59.08,0,0,1-2.26,7.5,40.65,40.65,0,0,0,5.14-7.05C2130.72,463.87,2130.86,431,2125.39,400Z"/><path class="cls-8" d="M2098.19,501.4c.21.12-22.13,8.63-37.48,2.47-14.44-5.78-22-26.24-21.74-26.26,6.46-.52,9.28-9,13.45-46.29l2.79.89,46.89,15s-2.83,15-4.5,29.2C2096.19,488.39,2095.6,499.81,2098.19,501.4Z"/><path class="cls-17" d="M2038.51,342.46s21.62-27.28,53.46-5.81C2092,336.65,2074.36,335.12,2038.51,342.46Z"/><path class="cls-18" d="M2102.1,447.25s-2.83,15-4.5,29.2c-26.77-3.85-38.14-30-42.39-44.24Z"/><path class="cls-8" d="M2109.63,455.81s-63.65,6.42-67-33.28-13.89-65.6,26.61-71.38,49.69,8.69,54,21.67S2126.1,453.11,2109.63,455.81Z"/><path class="cls-16" d="M2098.14,347.73s-13.52,48-39.72,57.19-38.43,2.95-38.43,2.95,19.17-18.05,21-46.89C2041,361,2083.11,326.67,2098.14,347.73Z"/><path class="cls-16" d="M2094.13,351.88s13.91,9.3,17.94,19.14,7.21,30.53,13.22,29.31c0,0,10.48-32.76-5.8-49.43C2102.22,333.23,2094.13,351.88,2094.13,351.88Z"/><path class="cls-2" d="M2152.67,498.28c-6.61-8.29-20.12-12.6-33.38-14.83l-2.88-.45-2.42-.33c-5.59-.73-10.94-1.11-15.52-1.3l-1.22-1.75-.05-.05-53.82-4.36-.57,0h-.23c-4-.43-59.81-6-70.59,13.7-7,12.86-7.19,37.45-3.85,64.75-1,9.25-1.84,18.67-2.58,27.52l7,.81,54.83,6.33,16.78,1.93,84.86,9.79a50.89,50.89,0,0,0,5.62.34h0a51.81,51.81,0,0,0,19.44-3.59,52.5,52.5,0,0,0,25.59-21.42h0C2171.57,541.89,2161.36,509.18,2152.67,498.28Z"/><path class="cls-4" d="M2175.08,762.41h-231.6a90.41,90.41,0,0,0-90.4,90.4v231.6a90.4,90.4,0,0,0,90.4,90.4h231.6a90.4,90.4,0,0,0,90.4-90.4V852.81A90.4,90.4,0,0,0,2175.08,762.41Zm37,302.89a52.24,52.24,0,0,1-49.76,52.26c-.86,0-1.71.06-2.57.06H1957.29c-.34,0-.7,0-1,0A52.27,52.27,0,0,1,1906,1065.3V863.93a52.33,52.33,0,0,1,52.33-52.34h201.37a52.33,52.33,0,0,1,52.33,52.34Z"/><path class="cls-8" d="M2028.92,957.22s-1.16,35.82-5.74,51.86l-36.28,25.31,136.56,20.44-32.56-45s-9.84-48-4.68-65.78S2028.92,957.22,2028.92,957.22Z"/><path class="cls-9" d="M2028.72,962.17s10.8,26,31.14,25.42,25-23.57,25-23.57Z"/><path class="cls-6" d="M2016.58,941.12s-6.57-32.79-11.15-42.72-8.41-54.24,42.4-56.54c0,0,19.48,2.3,30.18-4.2,0,0,0,6.5-2.68,8.79a33.75,33.75,0,0,1,31.33,11.08c13.75,15.27-9.17,68.75-8,81.36Z"/><path class="cls-8" d="M2057.53,977.55c-14.74-.26-41.87-19.89-41.87-44.19V895.43c0-8.87,6.19-16.13,13.76-16.13h56.23c7.56,0,13.75,7.26,13.75,16.13v35.78C2099.4,956.7,2074.43,977.85,2057.53,977.55Z"/><path class="cls-6" d="M2015.66,915.68s.08-22.78,18.13-26.29,58.45,11.11,64.18-5.51-78.09-16.33-82.31-5.73S2015.66,915.68,2015.66,915.68Z"/><path class="cls-2" d="M2149.48,1117.62H1957.29c4.83-43.79,15.2-96.58,23.5-100.06,0,0,1-.35,2.78-.92h0a188.48,188.48,0,0,1,26.88-5.93h.1q5.78-.9,12.58-1.6c0,.53,15.71,23.5,34.35,26.07,11.59-4.58,20.69-8.49,33.37-25.32,4.18.49,8.46,1.06,12.84,1.74,10.65,1.64,21.86,3.87,33.58,6.82,1.39.34,2.79.7,4.19,1.08h0c.56.13,1.11.29,1.67.44,0,0,.13.58.46,4h0C2144.37,1031.7,2146.09,1054.13,2149.48,1117.62Z"/><path class="cls-7" d="M1982.31,1016.87l-.14,0a28.25,28.25,0,0,0-2.92.85l-.21.06-.17.06-.12,0c-10.08,3.5-35.32,16.3-70.58,62.21a52.35,52.35,0,0,0,48.08,37.46c.34,0,.7,0,1,0h51.81c.55-32.33.94-60.46,1.18-79.74.11-8.52.19-15.3.24-20s.08-7.23.08-7.23h-.1C2000.51,1011.89,1988.24,1015.16,1982.31,1016.87Z"/><path class="cls-7" d="M2143.19,1019.91a29.51,29.51,0,0,0-5.2-1.5h0c-6.75-1.7-22-5.37-34.21-6.84h0c0,.28,0,6.1.11,16.15h0c.06,6.45.13,14.63.22,24.2.17,17.82.42,40.46.75,65.69h54.92c.86,0,1.71,0,2.57-.06A52.36,52.36,0,0,0,2210,1079.8C2177.07,1036.63,2153.52,1023.73,2143.19,1019.91Z"/><path class="cls-11" d="M2093.13,913.83a10,10,0,0,0-7.88-3.36h-16.57c-3.14,0-5.34.91-6.53,2.69a6.07,6.07,0,0,0-.94,2.74h0a15.54,15.54,0,0,0-7.35.13h0a6.23,6.23,0,0,0-1-2.87c-1.18-1.78-3.38-2.69-6.54-2.69h-16.55a10,10,0,0,0-7.88,3.36,8.51,8.51,0,0,0-1.55,7.28c1.89,9.35,12.67,10.55,18,10.55,1.66,0,2.81-.12,3-.14,5,0,8.59-2.88,11.17-9a16.15,16.15,0,0,0,1.25-5.08h0a14.27,14.27,0,0,1,7.29-.16h0a16.07,16.07,0,0,0,1.27,5.23c2.58,6.16,6.12,9,11.16,9,.22,0,1.37.14,3,.14,5.38,0,16.17-1.2,18.05-10.55A8.48,8.48,0,0,0,2093.13,913.83Zm-40.37,3.91a16.12,16.12,0,0,1-1.14,4.32c-2.39,5.71-5.63,8.37-10.18,8.37h-.07a32,32,0,0,1-9.19-.42c-6.14-1.25-9.75-4.32-10.71-9.11a7.43,7.43,0,0,1,1.31-6.38,9,9,0,0,1,7-3h16.55c2.77,0,4.66.75,5.64,2.21a5.1,5.1,0,0,1,.78,2.57h0a12.49,12.49,0,0,0-1.46.54.65.65,0,0,0,.27,1.24.63.63,0,0,0,.27-.06s.35-.15.89-.34Zm40.84,3.16c-1,4.79-4.58,7.86-10.72,9.11a32,32,0,0,1-9.18.42h-.07c-4.56,0-7.8-2.66-10.19-8.37a15.83,15.83,0,0,1-1.14-4.43h0a9.92,9.92,0,0,1,.94.44.66.66,0,0,0,.88-.28.65.65,0,0,0-.27-.88,13.21,13.21,0,0,0-1.57-.67h0a5.24,5.24,0,0,1,.78-2.45c1-1.46,2.87-2.21,5.62-2.21h16.57a8.92,8.92,0,0,1,7,3A7.43,7.43,0,0,1,2093.6,920.9Z"/><path class="cls-4" d="M1511.38,746.14h-268.6A104.83,104.83,0,0,0,1137.94,851v268.6a104.84,104.84,0,0,0,104.84,104.84h268.6a104.83,104.83,0,0,0,104.83-104.84V851A104.82,104.82,0,0,0,1511.38,746.14Zm42.89,351.26a60.71,60.71,0,0,1-37.89,56.26c-1.31.53-2.64,1-4,1.45a60.33,60.33,0,0,1-18.81,3H1260a60.69,60.69,0,0,1-60.69-60.69V863.86A60.69,60.69,0,0,1,1260,803.17h233.54a60.69,60.69,0,0,1,60.69,60.69Z"/><path class="cls-19" d="M1378.82,865.07h0a60.94,60.94,0,0,0-23-.67A74.05,74.05,0,0,0,1325.15,876c-11.84,8-28.91,25.25-9.82,72.58l9.05,16.28c-3,35.45-17.52,35.46-17.52,35.46s6.34,3.13,9.4,3.13c0,0,4.48-1.71,5.36-4.19,0,0-.88,3.89-2,5.13,0,0,24.62,2.33,36.92-7,6.68-5,14-16.91,18.72-29l18.62,1.31c.2,8-2.67,17.17-11.62,26.74,0,0,23,2.25,30.74-4.11a21.18,21.18,0,0,1-2.94,4.5s25.68.92,36.28-7.09S1450.1,850.38,1378.82,865.07Z"/><path class="cls-8" d="M1467.81,1158.09H1286c-2.2-14.11-3.56-27.27-2.71-39.9,1.07-15.86,8.08-30.14,16.34-41.73a142.49,142.49,0,0,1,30.27-30.72l1.14-.2c1.3-.23,3.55-.59,5.94-.81h0c2.27-1.19,3.19-9.43,3.46-19.07.08-2.68.11-5.47.1-8.24,0-2.4,0-4.82-.1-7.19q0-1.66-.09-3.3c0-.31,0-.62,0-.92,0-.47,0-.92,0-1.37s0-.71,0-1c0-.55,0-1.09-.06-1.62,0-.71,0-1.42-.08-2.11,0-.15,0-.29,0-.44,0-.66,0-1.29-.08-1.92s-.08-1.5-.12-2.2l0-.54c0-1.12-.11-2.17-.17-3.12,0-.26,0-.51,0-.76s0-.57-.05-.83,0-.52,0-.76c0-.8-.09-1.47-.13-2,0-.12,0-.24,0-.35s0-.26,0-.36c0-.5-.05-.77-.05-.77l30.69-6.07h0l21-4.17,2.46-.48.62-.13v0a183.4,183.4,0,0,0,1.18,21.81,146.22,146.22,0,0,0,2.57,15.41v0c3.83,17,9.79,27.17,14.09,28.85h0a1.84,1.84,0,0,0,.43.15C1433.35,1045.53,1465.16,1099.82,1467.81,1158.09Z"/><path class="cls-20" d="M1339.33,985.8s1.18,16.28,1.21,31.62c29-.82,44.25-27.22,50.52-41.86Z"/><path class="cls-8" d="M1329.67,1000.33s68.49,1.13,68.53-41.54,8.92-71.25-34.81-73.77-52.24,13.74-55.72,28S1311.85,998.93,1329.67,1000.33Z"/><path class="cls-19" d="M1332.2,884s18.75,50,47.53,57.45,41.26-.3,41.26-.3-22.07-17.54-26.65-48.15C1394.34,893,1346.34,860.15,1332.2,884Z"/><path class="cls-19" d="M1336.85,888s-14,11.17-17.42,22-5,33.23-11.47,32.47c0,0-14.13-34,1.75-53.26C1326.54,868.87,1336.85,888,1336.85,888Z"/><path class="cls-19" d="M1334.24,889.73s13.37,52.41,49.68,69.2c0,0-36.31-32.21-39.4-66.8S1334.24,889.73,1334.24,889.73Z"/><path class="cls-2" d="M1507.47,1132.19,1504,1124l-1.7-4a.21.21,0,0,0,0-.11c-15.84-37.58-28.37-66-29.6-68-3.53-6-51.77-11.89-58.83-11.85-5.14,0-7.95-17-9.09-26.29a3.45,3.45,0,0,0-5.36-2.45c-.51.34-1,.68-1.53,1l-1.89,1.21c-.64.39-1.27.77-1.91,1.14l-1.28.73c-.48.27-1,.53-1.45.78s-.88.47-1.31.69l-1.33.67-1.32.63-1,.49q-1,.44-1.92.84l-1.37.57-1,.39q-2.64,1-5.27,1.9c-14.7,4.83-28.45,5.28-36.38,3.41l-.58-.14a5.59,5.59,0,0,0-6.84,6.63c1.06,4.83,1.34,10.12-1.39,12.79-12.25,2.73-42.07,10.33-47.65,21-4,7.6-4.38,52.39-6.55,92.2h216.14a60.33,60.33,0,0,0,18.81-3c1.35-.43,2.68-.92,4-1.45C1513.36,1146.33,1510.38,1139.14,1507.47,1132.19Z"/><path class="cls-5" d="M1441.92,1158.09h-29c7.33-12.14,14.32-21,18.37-21.45C1434.77,1136.22,1438.46,1145.34,1441.92,1158.09Z"/><path class="cls-5" d="M1413.87,1040s-36.12,22.87-63.45,17.46c0,0-6.56-4.14,2.49-8.31,8.5-3.91,28.26-15.45,23.92-26.85a89.27,89.27,0,0,0,22.59-11,3.45,3.45,0,0,1,5.36,2.45C1405.92,1023,1408.73,1040,1413.87,1040Z"/><path class="cls-5" d="M1788.62,1165.81s55,56.26,57.67,78-26.51,55.63-26.51,55.63Z"/><path d="M1764.07,1762s-1.9,30.58-7.81,31c-.79.06-30,.06-30,.06l-37.31-.22s.25-9,11.15-10.88,29.16-9.57,35.76-24C1742.8,1742.88,1764.07,1762,1764.07,1762Z"/><path d="M1847.16,1762s-1.9,30.58-7.82,31c-.78.06-30,.06-30,.06l-37.3-.22s.24-9,11.15-10.88,29.15-9.57,35.76-24C1825.89,1742.88,1847.16,1762,1847.16,1762Z"/><path d="M1722.76,1433.36s9.75,62.4,46.15,173.17,41.35,158.74,41.35,158.74l39-1.1s.33-121.06-16.45-176.76-3.61-200.81-3.61-200.81Z"/><path class="cls-7" d="M1703.75,1390s-1.38,94,14.89,209.49S1729.4,1764,1729.4,1764l39,1.3s23.29-115.5,16.61-173.29,31.89-198.29,31.89-198.29Z"/><path class="cls-8" d="M1779.19,1170l-20.76,13.61-30-5.59c.42-2.43,2.4-12.46,4.2-21.56.11-.53.22-1.07.32-1.59,1.54-7.74,2.88-14.39,2.88-14.39l28-12.36,10.45-4.61c0,.16-.81,8.59-.91,9.81C1771.41,1155.14,1779.19,1170,1779.19,1170Z"/><path class="cls-5" d="M1736.11,1163.11c.58-.25,36.13-10.74,40-9.46s6.15,8.75,6.15,8.75l-58.15,13.14S1728.68,1166.24,1736.11,1163.11Z"/><path class="cls-2" d="M1831.83,1401.63c-6,27.49-106.31,30.75-132.16,5.8-2.94-2.85-3.08-16.08-2-33.92,2.16-34.86,9.13-87.29,9.4-114.08a211.81,211.81,0,0,1,4.28-38.19,310.27,310.27,0,0,1,12.72-45.7s49-15.84,58.15-13.14C1826.4,1175.37,1837.86,1374.14,1831.83,1401.63Z"/><path class="cls-5" d="M1697.7,1373.51c2.16-34.86,9.13-87.29,9.4-114.08a211.81,211.81,0,0,1,4.28-38.19l29.46-5.2S1769.65,1333.71,1697.7,1373.51Z"/><path class="cls-8" d="M1713.65,1324.92a6.92,6.92,0,0,1-2.21,8c-4.22,3.23-7,8.45-6,12.27s10.21,10,13.42,9,9.74-6,9-8,4.39-17.66-3.43-23.69S1713.65,1324.92,1713.65,1324.92Z"/><path class="cls-2" d="M1746.6,1168.49s-28.74,5.37-51.63,39.12-38,58.83-33.75,71,42.67,54.34,49.3,54.34,17.32-4.82,17.92-15.67c0,0-27.06-40.57-21.73-46.64,2.28-2.6,35.14-29.28,39.83-17.23C1754.3,1273.34,1746.6,1168.49,1746.6,1168.49Z"/><path class="cls-21" d="M1771.27,1133.69c-6.15,10.43-29.08,19.44-38.65,22.75.11-.53.22-1.07.32-1.59,1.54-7.74,2.88-14.39,2.88-14.39l28-12.36C1770,1128,1773.81,1129.4,1771.27,1133.69Z"/><path class="cls-8" d="M1725.26,1138.76s45.14,14.08,53.48-14.17,19.77-45.45-8.7-55.63-37.27-1.07-42.35,7.68S1713.73,1134.37,1725.26,1138.76Z"/><path class="cls-19" d="M1729.47,1073.92s2.87,32.87,9.67,31.44,13-2.48,12,7.43-5.62,25.65,15.33,27.4,46.26-56.57,40.51-66.8C1790.34,1043.87,1705.47,1037.92,1729.47,1073.92Z"/><path class="cls-8" d="M2518.3,549.91s-20.61,24.44-46.84,14.22c0,0-5.65-13.66-5.73-23.72,0-1.24,0-2.44,0-3.58-.14-11.33-.53-17.69-.53-17.69h0c1.2-.49,40.11-16.47,40.08-15.14C2504.6,534.64,2518.3,549.91,2518.3,549.91Z"/><path class="cls-22" d="M2501.36,511.29c-3.75,7-16.63,20.57-35.67,25.54-.14-11.33-.53-17.69-.53-17.69h0C2466.27,518.85,2502.48,509.24,2501.36,511.29Z"/><path class="cls-8" d="M2457,518s43.77,10.29,49.76-17.06,15.67-44.45-12-52.18-35.43,1.52-39.64,10.17S2445.78,514.58,2457,518Z"/><path class="cls-23" d="M2505.27,508.35c.6.38,10,3.28,27.85-32.25,2.8-5.58,4.71-17.64-1.82-28.3s-29.67-19.05-48.89-22.69-23.84,7.17-28.37,18c-4.75,11.41-18.48,20.81-18.48,20.81,16.58,9.26,36.55-4,43.47-1.81s9.36,13.08,9.88,16.58,1.31,6.39,10,3.27,3.94,12.33,2.54,15.28C2501.46,497.28,2500.28,505.15,2505.27,508.35Z"/><path d="M2618,1190.5h26.51c5.55,0,11.72-5.57,13.27-15.75s13-15.75,15.44-24.08-10.2-20.08-10.2-20.08l-2.11-2.72-2.2-2.83-21,4.94s-.52,5-.85,11.36a144.41,144.41,0,0,0-.08,14.57c.62,11.12-3.12,23.09-13,25.25S2618,1190.5,2618,1190.5Z"/><path d="M2433.53,1190.5h70.24a6.44,6.44,0,0,0,1.5-.44c4.68-2.34,3.22-20.3,2.65-25.85-.11-1-.18-1.63-.18-1.63s-24.7-19.76-28.1-4.63c-.11.47-.24.94-.37,1.39h0c-4.29,14.16-23.45,20.58-34.52,22.38C2436.28,1183.1,2434.09,1188,2433.53,1190.5Z"/><path class="cls-7" d="M2447.68,785.4s3.76,46.81,8.17,103.07c6,76.43,13.19,170.31,13.91,188.09,1.23,30.88,6.18,80.28,6.18,80.28s11.72,11.73,35.19,6.79c0,0,20.92-70.52,26.89-145.13.1-1.22.19-2.45.28-3.69,5.56-75.95,14.2-235.89,14.2-235.89Z"/><path d="M2447.68,785.4s3.76,46.81,8.17,103.07l82.17,130c.1-1.22.19-2.45.28-3.69,5.56-75.95,14.2-235.89,14.2-235.89Z"/><path class="cls-7" d="M2464.82,791s67.61,169.51,112.08,249.17S2635.25,1142,2635.25,1142s25.47-10.19,27.79-17.14c0,0-17-153.78-46.78-191.27-16.82-21.18-36.59-84.76-37.51-107s-6-66.22-6-66.22Z"/><path class="cls-2" d="M2619,760.17l.72,10.9s-7.19,19.36,13,29.3c0,0,8.62,3.48,9-3.24s-.75-4.18,0-13.64-3-18.39-9.27-21.39l-5.13-5.93Z"/><path class="cls-2" d="M2626.89,768.1c-7.49,2.4-8.68,1.86-8.68,1.86s-36.43-66.32-40.12-72.39-77.34-74.37-77.34-74.37l18.92-70.58s83.77,108.48,92.82,124c15,25.73,23.71,85.46,23.71,85.46A21.91,21.91,0,0,1,2626.89,768.1Z"/><path class="cls-2" d="M2433.41,650.91c.26,14.49,1.11,30.79,2.24,47.34l.21,2.94c.73,10.25,1.51,20.53,2.42,30.55q.54,6,1.15,11.89l.06.53c0,1.46.21,3,.37,4.49,3.69,37.53,7.56,67.18,8.28,67.64a4.21,4.21,0,0,0,2.89.73c9.84-1.23,39.21,1,63.25-4.23,20.29-4.28,37.76-12.39,56.27-23.33,2.46-1.46,8.06-5.3,7.6-8.18-.44-3.16-1.27-7.72-2.32-13.47-3.65-20-9.94-54.3-12.09-94.49-.42-7.49-1-14.89-1.82-22.16a336.58,336.58,0,0,0-9.8-52.9c-8.25-29.68-20.36-52.41-35.56-61.31-2-1.11-12.67,5.69-22.48,12a43.36,43.36,0,0,1-27.89,6.6l-8.16,9c-9.89,11.49-20.42,26.8-23.3,48.56-.21,1.6-.4,3.31-.56,5.13A322.13,322.13,0,0,0,2433.41,650.91Z"/><path class="cls-5" d="M2433.41,650.91c.26,14.49,1.11,30.79,2.24,47.34l.21,2.94c56.22-35.19,64.88-99.59,64.88-99.59-27.66,1.21-49.63,7.57-66.57,16.67A322.13,322.13,0,0,0,2433.41,650.91Z"/><path class="cls-2" d="M2267.28,588.94l-10.23-5.26s-6.61-21.77-31.29-18.66c0,0-10,2-5.84,8.3s3.49,3.33,9.23,12.27,15.06,14.78,22.67,13.74l8.56,2.27Z"/><path class="cls-2" d="M2257.26,591.78c2.9-7.84,7.4-7.33,7.4-7.33s83.6,20.83,91.1,21.73,90-32.22,90-32.22,32.48-14.58,47.7-1.27c13.22,11.56,13.82,26.22,10.73,38.52a36.8,36.8,0,0,1-31.09,27.4C2439.45,642.9,2372.28,651,2358.2,649c-31.33-4.37-102.33-45.35-102.33-45.35A26.3,26.3,0,0,1,2257.26,591.78Z"/><path class="cls-6" d="M1078.08,1216.34s2.38-25.91-26.57-25.91c0,0,8.77,2.38,13.31,7.14,0,0-18.46-10.84-38.55,5.82s-7.61,58.42-13.72,66.35-29.9,9.52-27,35.17,75.52,57.76,70.85,79c0,0,28.46-41.82,8.11-60.91,0,0,9.92,9.34,10.93,20.45,0,0,2.69-21.68-11.1-28.62-12.21-6.13-22.21-28.57-21.15-32.58S1078.08,1216.34,1078.08,1216.34Z"/><path class="cls-9" d="M1051.8,1338.23c-4.47-21.5-32.34-28.16-45.52-10.61a23.38,23.38,0,0,0-4.59,11.29c-3,24.4,36,123.78,41.59,132.78,10.17,16.38,70.06,72.54,70.06,72.54l11-6.69s-42.48-71.92-49.06-78.65C1067.72,1451.11,1060.27,1379,1051.8,1338.23Z"/><path class="cls-5" d="M1045.38,1324.89s8.48,8.83,12.36,19.41c0,0-13.54,38.88-45.19,43.76C1012.55,1388.06,1037.59,1324.88,1045.38,1324.89Z"/><path class="cls-6" d="M1069.89,1212.7c.4-1.58-34.29,15.68-36.05,17.63-16.27,18-11.63,41.59-2.32,41.82,6,.14,4.81,10.07,4.81,10.07l66.51-28.14S1094.83,1207.39,1069.89,1212.7Z"/><path class="cls-7" d="M996.77,1776.53l-14.39-2.11S934,1736,926.79,1664.21a128.13,128.13,0,0,1-.35-22.18,3.83,3.83,0,0,0-.5-2.45l0,0c-1.55-2.38-5.4-8.33-10.62-16.79s-13.95-24.09-23.63-41.77c-17.45-31.84-37.76-69.92-44.73-82-22.21-38.66-11.5-64.65-11.5-64.65s61.93-6.13,78.9-21l6.12,9.42s13.42,59.41,12.78,59.68q1,3,2,6.17c10.59,32.69,22.77,73.54,29.41,106.82,3.73,18.72,5.71,35,4.65,46.15-.37,3.81.08,9.67,1.09,16.9C976.41,1701.12,996.77,1776.53,996.77,1776.53Z"/><path d="M1027,1794.74h-60s-1.44-9.15,1.7-16.09c3-6.66,7.28-6.87.54-17.32,3.82,3.93,16.08,5.56,24.76,4.39,1.07,1.72,6.86,13.29,10.41,15.85C1008.26,1784.38,1025.75,1783.38,1027,1794.74Z"/><path d="M935.26,1488.61c-5.25,28.93-17.64,77.07-43.59,92.39-17.45-31.84-37.76-69.92-44.73-82-22.21-38.66-11.5-64.65-11.5-64.65s61.93-6.13,78.9-21l6.12,9.42s13.42,59.41,12.78,59.68Q934.23,1485.47,935.26,1488.61Z"/><path class="cls-7" d="M893.14,1438.77l.21-11.23c-22.38,2.82-77.15-26.73-77.15-26.73s-23.41,15.57-26.61,60c-1.56,21.7-11.46,113.47-12.55,140.88-.4,9.93-.53,17-.58,19.85v0a3.89,3.89,0,0,1-1,2.31,128.48,128.48,0,0,0-12.12,18.59c-34.14,63.52-16.29,149.83-16.29,149.83l7.93-2s28.87-89.48,47.73-128.19c3.21-6.56,6.12-11.67,8.55-14.62,7.09-8.62,14.57-23.25,22-40.86,13.93-33.29,27.47-77.23,37.12-111.24C871.06,1495.53,893.14,1438.77,893.14,1438.77Z"/><path class="cls-8" d="M1024.08,1363.82c-36.58-8.39-13.21-59.79-11.09-58.88,5.07-1,16.2-9.93,26.15-27.31l1.35,1.16,22.46,19.7s-5.19,7.66-9.56,15.16c-3.41,5.88-6.31,11.67-5.85,13.65C1049.35,1328.72,1033.83,1366.07,1024.08,1363.82Z"/><path class="cls-9" d="M1063,1298.5s-5.19,7.65-9.56,15.16c-14-8.61-14-25.9-12.9-34.86Z"/><path class="cls-8" d="M1063.58,1308.36s-33.92-18.87-21.84-39.81,15.83-37.47,38-26.31,21.72,21.55,19.39,29.53S1072.71,1312.73,1063.58,1308.36Z"/><path class="cls-6" d="M1104.86,1259.55c-1.55-9.29-6.28-10.18-9.57-9.56-12.52-20.71-33-12.63-33-12.63a46.21,46.21,0,0,1-26.73,16.06s3.94,7.32,20.15,11.85c5,1.39,10.58.55,16-1.28a90.32,90.32,0,0,1-23,8.68c21.37,1.95,41.7-17.58,43.8-19.67,1,3,2.72,9.36,1.68,14-1.4,6.29-7,17.7-3.58,19.17C1090.61,1286.17,1107.19,1273.5,1104.86,1259.55Z"/><path d="M794.85,1794.74h-60s-1.44-9.15,1.69-16.09c3-6.66,7.71-9.69,6.59-17.75,3.81,3.93,10,8.33,18.71,7.16,1.07,1.72,6.87,11,10.42,13.51C776.14,1784.38,793.64,1783.38,794.85,1794.74Z"/><path class="cls-2" d="M1028.38,1404.57c-7.72,2.7-18.57,4.17-29.66,5.38-15.79,1.72-32.09,2.9-40.63,6.31-3.11,1.24-5.2,2.77-5.85,4.73-3.7,11.13-20,28.31-20,28.31-104.55-4.76-116-48.49-116-48.49,70.34-81.8,189.45-105.48,189.45-105.48s8.5-3.6,29.93,13.42c14.29,11.37,12.41,15.74,12.41,15.74S1051.12,1396.64,1028.38,1404.57Z"/><path class="cls-5" d="M998.72,1410c-15.79,1.72-32.09,2.9-40.63,6.31-3.49-52.15,21.12-91.37,21.12-91.37S995.26,1390.22,998.72,1410Z"/><path class="cls-4" d="M1444.92,1353.31h-247a96.42,96.42,0,0,0-96.41,96.41v247a96.41,96.41,0,0,0,96.41,96.4h247a96.4,96.4,0,0,0,96.4-96.41v-247A96.41,96.41,0,0,0,1444.92,1353.31Zm39.44,323a55.84,55.84,0,0,1-55.81,55.81H1213.79a55.82,55.82,0,0,1-55.8-55.81V1461.57a55.8,55.8,0,0,1,55.8-55.8h214.76a55.81,55.81,0,0,1,55.81,55.8Z"/><path class="cls-6" d="M1279.12,1567.42s-31.17-56.53-2.58-81.5,78.92-10.06,88.18,0,21.6,38.7-4,79.41Z"/><path class="cls-14" d="M1292,1590.69s-1.12,34.91-5.59,50.55l-35.37,24.66,133.12,19.92L1352.45,1642s-9.58-46.8-4.55-64.12S1292,1590.69,1292,1590.69Z"/><path class="cls-15" d="M1291.85,1595.51s10.53,25.34,30.35,24.78,24.35-23,24.35-23Z"/><path class="cls-14" d="M1319.93,1610.5c-14.36-.25-40.81-19.38-40.81-43.08v-37c0-8.65,6-15.73,13.41-15.73h54.81c7.37,0,13.4,7.08,13.4,15.73v34.87C1360.74,1590.17,1336.41,1610.79,1319.93,1610.5Z"/><path class="cls-2" d="M1469.37,1714.37a55.62,55.62,0,0,1-40.82,17.77H1213.79a55.65,55.65,0,0,1-41.65-18.68c46-61.17,75.2-65,76-65.11a195.48,195.48,0,0,1,38.47-7.56c0,.51,15.43,23.11,33.61,25.62,11.29-4.46,19.76-8.84,32.11-25.25,14,1.63,29.55,4.86,45.66,8.91V1650S1425.22,1656.84,1469.37,1714.37Z"/><path class="cls-6" d="M1279.12,1545.45s10-30.44,42.65-25.69,35.5,11.72,39,19.82,10.18-29.6,10.18-29.6l-38.54-11.45s-46.64,5.31-50,13.13l-3.35,7.82Z"/><path class="cls-6" d="M1317.26,1486.55s-34.53-31.37-19.71-38.08S1317.26,1486.55,1317.26,1486.55Z"/><path class="cls-6" d="M1315.87,1487.38s-43.66-16.45-32.36-28.14S1315.87,1487.38,1315.87,1487.38Z"/><path class="cls-6" d="M1318.73,1488.29s-7.15-40.47,10.11-40.17S1318.73,1488.29,1318.73,1488.29Z"/><path class="cls-6" d="M1321.15,1485.65s18.7-43.54,36.11-39.46S1321.15,1485.65,1321.15,1485.65Z"/><path class="cls-6" d="M1320.19,1488.29s29.76-36.86,45.43-28.24S1320.19,1488.29,1320.19,1488.29Z"/><path class="cls-8" d="M1015,1314.8s-39.57,3.91-42.74,29.62,37.93,130.44,43.82,139.92c10.72,17.27,73.83,76.44,73.83,76.44l11.63-7s-44.76-75.78-51.69-82.88C1038.94,1459.72,1028.37,1323.71,1015,1314.8Z"/><path class="cls-5" d="M973.37,1359.89c.1.59,36.52,11.9,59.95,0,0,0,5-54.07-23-51.13s-44.54,11.74-45.25,25.14S973.37,1359.89,973.37,1359.89Z"/><path class="cls-8" d="M1089.88,1560.78s-4.88,18.56,0,27a77.49,77.49,0,0,0,11.63,14.89v-48.9Z"/><polygon class="cls-13" points="2421.94 1793.12 2113.02 1793.12 2214.55 1353.31 2508.59 1353.31 2522.11 1359.26 2421.94 1793.12"/><polygon class="cls-10" points="2407.05 1793.12 2098.12 1793.12 2199.66 1353.31 2508.59 1353.31 2407.05 1793.12"/><path class="cls-2" d="M2425.64,1415.14H2283.07a7.67,7.67,0,0,0-7.05,5.73,4.42,4.42,0,0,0,4.41,5.73H2423a7.67,7.67,0,0,0,7.05-5.73A4.42,4.42,0,0,0,2425.64,1415.14Z"/><path class="cls-2" d="M2422.58,1445.65H2272.05a2.36,2.36,0,0,0-2.16,1.75,1.36,1.36,0,0,0,1.35,1.76h150.53a2.34,2.34,0,0,0,2.15-1.76A1.35,1.35,0,0,0,2422.58,1445.65Z"/><path class="cls-2" d="M2420.71,1453.72H2270.18a2.34,2.34,0,0,0-2.15,1.75,1.36,1.36,0,0,0,1.35,1.75h150.53a2.34,2.34,0,0,0,2.15-1.75A1.35,1.35,0,0,0,2420.71,1453.72Z"/><path class="cls-2" d="M2217.61,1426.6h38.52a7.67,7.67,0,0,0,7-5.73,4.42,4.42,0,0,0-4.4-5.73h-38.52a7.66,7.66,0,0,0-7.05,5.73A4.42,4.42,0,0,0,2217.61,1426.6Z"/><path class="cls-2" d="M2402.16,1503.92H2259.59a7.66,7.66,0,0,0-7.05,5.73,4.42,4.42,0,0,0,4.4,5.73h142.57a7.68,7.68,0,0,0,7.06-5.73A4.43,4.43,0,0,0,2402.16,1503.92Z"/><path class="cls-2" d="M2399.09,1534.43H2248.57a2.34,2.34,0,0,0-2.16,1.75,1.35,1.35,0,0,0,1.35,1.75h150.52a2.33,2.33,0,0,0,2.16-1.75A1.36,1.36,0,0,0,2399.09,1534.43Z"/><path class="cls-2" d="M2397.23,1542.5H2246.7a2.34,2.34,0,0,0-2.15,1.75,1.35,1.35,0,0,0,1.34,1.75h150.53a2.35,2.35,0,0,0,2.16-1.75A1.36,1.36,0,0,0,2397.23,1542.5Z"/><path class="cls-2" d="M2194.13,1515.38h38.52a7.67,7.67,0,0,0,7-5.73,4.42,4.42,0,0,0-4.41-5.73h-38.52a7.67,7.67,0,0,0-7.05,5.73A4.43,4.43,0,0,0,2194.13,1515.38Z"/><path class="cls-2" d="M2383.45,1592.7H2240.88a7.66,7.66,0,0,0-7.05,5.73,4.42,4.42,0,0,0,4.4,5.73H2380.8a7.66,7.66,0,0,0,7-5.73A4.42,4.42,0,0,0,2383.45,1592.7Z"/><path class="cls-2" d="M2380.38,1623.21H2229.85a2.34,2.34,0,0,0-2.15,1.75,1.35,1.35,0,0,0,1.35,1.75h150.52a2.33,2.33,0,0,0,2.16-1.75A1.36,1.36,0,0,0,2380.38,1623.21Z"/><path class="cls-2" d="M2378.52,1631.28H2228a2.33,2.33,0,0,0-2.15,1.75,1.34,1.34,0,0,0,1.34,1.74h150.53a2.35,2.35,0,0,0,2.16-1.74A1.35,1.35,0,0,0,2378.52,1631.28Z"/><path class="cls-2" d="M2175.42,1604.16h38.52a7.67,7.67,0,0,0,7-5.73,4.42,4.42,0,0,0-4.41-5.73h-38.52a7.67,7.67,0,0,0-7,5.73A4.42,4.42,0,0,0,2175.42,1604.16Z"/><path class="cls-2" d="M2361.62,1685.1H2219.05a7.66,7.66,0,0,0-7.05,5.73,4.42,4.42,0,0,0,4.4,5.73H2359a7.65,7.65,0,0,0,7.05-5.73A4.42,4.42,0,0,0,2361.62,1685.1Z"/><path class="cls-2" d="M2358.55,1715.61H2208a2.34,2.34,0,0,0-2.15,1.75,1.35,1.35,0,0,0,1.35,1.75h150.53a2.34,2.34,0,0,0,2.15-1.75A1.35,1.35,0,0,0,2358.55,1715.61Z"/><path class="cls-2" d="M2356.69,1723.68H2206.16a2.33,2.33,0,0,0-2.15,1.74,1.35,1.35,0,0,0,1.34,1.75h150.53a2.33,2.33,0,0,0,2.16-1.75A1.35,1.35,0,0,0,2356.69,1723.68Z"/><path class="cls-2" d="M2194.75,1685.1h-38.52a7.67,7.67,0,0,0-7.05,5.73,4.43,4.43,0,0,0,4.41,5.73h38.52a7.67,7.67,0,0,0,7-5.73A4.43,4.43,0,0,0,2194.75,1685.1Z"/><path class="cls-5" d="M2402,1385.74H2282.3a12.73,12.73,0,0,1-12.41-15.6l4.5-19.53h147.4l-5.49,23.77A14.67,14.67,0,0,1,2402,1385.74Z"/><polygon class="cls-5" points="2421.79 1350.61 2431.93 1353.31 2421.16 1353.31 2421.79 1350.61"/><path class="cls-5" d="M2492.46,1782.9a10.2,10.2,0,0,1-3,7.23,10.2,10.2,0,0,1-7.23,3h-288a10.23,10.23,0,0,1,0-20.46h288a10.41,10.41,0,0,1,2.25.25A10.26,10.26,0,0,1,2492.46,1782.9Z"/><polygon class="cls-5" points="2484.48 1772.67 2522.1 1780.99 2484.48 1793.12 2484.48 1772.67"/><path class="cls-5" d="M2257.66,1772.67v20.46H2194.2a10.23,10.23,0,0,1,0-20.46Z"/><path class="cls-24" d="M3099.3,1800.78H100.7a4,4,0,0,1-4-4h0a4,4,0,0,1,4-4H3099.3a4,4,0,0,1,4,4h0A4,4,0,0,1,3099.3,1800.78Z"/></svg>